 <svg  version="1.0" xmlns="http://www.w3.org/2000/svg"  width="1046.000000pt" height="481.000000pt" viewBox="0 0 1046.000000 481.000000"  preserveAspectRatio="xMidYMid meet">  <g transform="translate(0.000000,481.000000) scale(0.100000,-0.100000)" fill="#ffffff" stroke="none"> <path d="M4500 3775 l0 -1035 -2250 0 -2250 0 0 -1370 0 -1370 5230 0 5230 0 0 2405 0 2405 -2980 0 -2980 0 0 -1035z"/> <path d="M430 4739 c-179 -35 -344 -212 -357 -383 l-6 -66 167 0 c162 0 166 0 166 21 0 12 17 39 39 60 32 33 45 39 80 39 54 0 97 -22 121 -63 16 -25 20 -50 20 -114 l0 -83 165 0 165 0 0 108 c0 167 -38 260 -146 362 -118 109 -257 150 -414 119z"/> <path d="M1950 4415 l0 -145 145 0 145 0 0 145 0 145 -145 0 -145 0 0 -145z"/> <path d="M2550 4395 l0 -165 169 0 169 0 -5 48 c-8 73 -50 158 -101 202 -51 45 -135 80 -192 80 l-40 0 0 -165z"/> <path d="M73 4223 c11 -118 72 -226 174 -309 63 -52 145 -83 243 -94 41 -4 87 -13 103 -20 32 -15 67 -67 67 -99 0 -21 2 -21 167 -19 l167 3 -2 50 c-9 159 -90 284 -234 359 -36 19 -63 38 -60 42 4 4 1 4 -5 0 -7 -4 -39 -2 -70 4 -32 5 -79 12 -105 16 -55 6 -105 48 -115 95 l-5 29 -166 0 -165 0 6 -57z"/> <path d="M1390 4202 c-122 -32 -216 -110 -273 -225 -49 -101 -57 -159 -57 -435 l0 -252 168 2 167 3 5 255 c4 181 9 262 18 277 14 26 61 53 92 53 19 0 20 5 20 170 l0 170 -37 -1 c-21 0 -67 -8 -103 -17z"/> <path d="M1542 4054 l3 -169 160 0 160 0 -1 46 c-1 142 -123 268 -275 286 l-49 6 2 -169z"/> <path d="M1935 4210 c-4 -6 -6 -117 -6 -247 1 -234 1 -237 -23 -273 -22 -33 -40 -45 -99 -64 -16 -5 -17 -20 -15 -168 l3 -163 49 2 c65 2 140 28 201 69 45 30 52 32 70 19 67 -49 192 -95 257 -95 l28 0 0 170 0 170 -26 0 c-17 0 -40 14 -65 39 l-39 39 0 256 0 256 -164 0 c-103 0 -167 -4 -171 -10z"/> <path d="M2550 3980 c0 -258 -2 -271 -53 -318 -13 -13 -37 -26 -53 -31 l-29 -7 -3 -162 c-2 -140 0 -163 13 -168 40 -16 213 42 261 87 l22 20 53 -34 c65 -41 130 -65 204 -73 l55 -7 0 172 c0 166 -1 171 -20 171 -32 0 -75 26 -96 57 -17 25 -19 52 -22 281 l-4 252 -164 0 -164 0 0 -240z"/> <path d="M2890 4056 l0 -164 90 -4 c103 -5 133 -20 164 -82 33 -67 -5 -152 -79 -176 l-35 -12 0 -165 0 -166 63 7 c144 15 287 121 356 266 36 74 36 77 37 207 0 73 -1 131 -4 129 -2 -3 -20 26 -38 64 -87 173 -238 260 -450 260 l-104 0 0 -164z"/> <path d="M3505 4208 c-3 -7 -4 -215 -3 -463 l3 -450 55 2 c37 2 73 12 110 31 l55 28 54 -24 c117 -53 274 -53 383 1 50 25 53 25 77 8 42 -28 78 -41 136 -47 l55 -7 0 467 0 466 -164 0 -165 0 -3 -252 c-3 -229 -5 -256 -22 -281 -25 -37 -66 -57 -117 -57 -35 0 -48 6 -80 39 l-39 39 0 256 0 256 -165 0 c-123 0 -167 -3 -170 -12z"/> <path d="M70 3707 c0 -132 19 -204 78 -288 48 -69 138 -141 210 -169 69 -27 197 -37 271 -21 119 25 224 99 292 204 41 64 69 144 69 201 l0 36 -162 0 -163 -1 -19 -40 c-26 -56 -90 -87 -147 -70 -20 6 -51 27 -68 46 -30 34 -31 39 -31 125 l0 90 -165 0 -165 0 0 -113z"/> <path d="M2380 2955 l0 -145 33 0 c17 -1 49 -1 69 -2 67 -3 109 66 88 143 -17 61 -66 86 -127 65 -22 -7 -23 -5 -23 38 0 39 -3 46 -20 46 -19 0 -20 -7 -20 -145z m134 9 c9 -8 16 -31 16 -49 0 -41 -22 -65 -59 -65 -38 0 -51 17 -51 65 0 23 5 46 12 53 17 17 64 15 82 -4z"/> <path d="M2244 3076 c-8 -21 3 -36 27 -36 15 0 20 6 17 22 -4 27 -35 37 -44 14z"/> <path d="M1863 3016 c-65 -29 -47 -97 32 -118 33 -9 45 -17 45 -31 0 -13 -5 -17 -16 -13 -8 3 -12 2 -9 -4 9 -15 -16 -12 -49 5 -15 8 -32 12 -37 9 -19 -11 -8 -35 21 -48 17 -7 28 -15 24 -18 -3 -4 14 -2 38 3 102 22 103 111 0 138 -23 7 -39 17 -39 26 0 22 33 28 66 12 27 -13 30 -13 36 1 6 17 -18 42 -41 42 -7 0 -18 2 -26 5 -7 2 -27 -2 -45 -9z"/> <path d="M3113 3019 c-88 -25 -94 -165 -9 -205 40 -20 91 -11 110 18 14 23 -8 48 -26 30 -17 -17 -64 -15 -82 4 -9 8 -16 31 -16 49 0 18 7 41 16 49 18 18 65 21 81 5 13 -13 33 -4 33 15 0 31 -56 49 -107 35z"/> <path d="M3363 3023 c-12 -2 -34 -18 -48 -34 -51 -62 -20 -168 55 -184 35 -8 89 15 108 46 17 26 18 100 3 128 -18 33 -71 52 -118 44z m69 -60 c22 -20 23 -70 1 -95 -23 -25 -68 -23 -87 4 -46 66 28 144 86 91z"/> <path d="M3655 3020 c-11 -4 -32 -5 -47 -3 l-28 6 0 -107 c0 -99 1 -106 20 -106 18 0 20 7 20 73 0 78 9 97 46 97 28 0 34 -17 34 -101 0 -62 2 -69 20 -69 18 0 20 7 20 73 0 78 9 97 46 97 28 0 34 -17 34 -101 0 -62 2 -69 20 -69 18 0 20 7 20 84 0 46 -3 92 -6 101 -11 27 -51 37 -88 21 -19 -8 -38 -11 -42 -6 -15 14 -48 19 -69 10z"/> <path d="M663 3008 c2 -7 17 -55 33 -105 24 -78 32 -93 49 -93 17 0 25 13 44 72 l24 73 23 -70 c13 -39 24 -71 24 -73 0 -2 10 -2 22 0 17 2 26 19 49 93 34 108 35 115 9 115 -15 0 -23 -13 -36 -57 -9 -32 -19 -62 -22 -67 -3 -6 -15 19 -27 55 -16 47 -27 65 -41 67 -16 2 -24 -10 -43 -70 l-24 -73 -21 73 c-18 63 -24 72 -44 72 -15 0 -22 -5 -19 -12z"/> <path d="M1010 3008 c0 -7 13 -53 29 -103 23 -74 32 -91 49 -93 12 -2 22 -2 22 0 0 2 11 35 24 73 l23 70 23 -72 c21 -63 27 -73 47 -73 13 0 23 4 23 9 0 5 5 22 12 38 6 15 12 33 13 38 6 25 27 98 32 111 3 10 -2 14 -19 14 -20 0 -26 -9 -44 -72 l-21 -73 -24 73 c-19 61 -26 72 -43 70 -16 -2 -25 -18 -39 -66 -11 -35 -22 -60 -26 -55 -4 4 -15 34 -25 66 -13 44 -21 57 -37 57 -10 0 -19 -6 -19 -12z"/> <path d="M1350 3007 c0 -7 7 -36 16 -63 36 -115 46 -134 64 -134 18 0 31 26 58 115 9 29 10 28 32 -42 20 -60 28 -73 45 -73 18 0 26 14 50 93 15 50 30 98 32 105 3 7 -4 12 -20 12 -22 0 -26 -7 -43 -70 -13 -52 -20 -66 -27 -55 -5 9 -6 23 -3 31 3 8 2 13 -3 10 -5 -3 -14 15 -21 40 -10 36 -17 44 -33 42 -15 -2 -26 -20 -43 -68 -12 -37 -24 -59 -27 -50 -3 8 -13 39 -22 68 -12 39 -21 52 -36 52 -10 0 -19 -6 -19 -13z"/> <path d="M2070 2915 c0 -98 1 -105 20 -105 17 0 19 8 22 78 l3 77 33 10 c21 6 32 15 32 27 0 21 -39 25 -58 6 -9 -9 -12 -9 -12 0 0 7 -9 12 -20 12 -19 0 -20 -7 -20 -105z"/> <path d="M2244 3007 c-3 -8 -4 -54 -2 -103 3 -83 5 -89 25 -92 27 -4 29 6 25 119 -3 81 -5 89 -23 89 -11 0 -22 -6 -25 -13z"/> <path d="M2650 2936 c0 -95 12 -120 68 -135 18 -6 30 -7 28 -3 -2 4 7 12 20 19 13 6 24 7 24 2 0 -5 9 -9 20 -9 19 0 20 7 20 105 0 98 -1 105 -20 105 -18 0 -20 -7 -20 -74 0 -82 -11 -100 -57 -94 -28 3 -28 3 -31 86 -3 80 -3 82 -27 82 -25 0 -25 -1 -25 -84z"/> <path d="M4480 3000 c0 -7 3 -10 7 -7 3 4 3 10 0 14 -4 3 -7 0 -7 -7z"/> <path d="M1693 2844 c-3 -8 2 -23 11 -32 15 -15 17 -15 32 0 21 21 11 48 -16 48 -11 0 -23 -7 -27 -16z"/> <path d="M2924 2845 c-8 -20 13 -45 32 -38 8 3 14 16 14 29 0 17 -6 24 -20 24 -11 0 -23 -7 -26 -15z"/> </g> </svg> 