<?xml version="1.0" standalone="no"?>
<!DOCTYPE svg PUBLIC "-//W3C//DTD SVG 20010904//EN"
 "http://www.w3.org/TR/2001/REC-SVG-20010904/DTD/svg10.dtd">
<svg version="1.0" xmlns="http://www.w3.org/2000/svg"
 width="300.000000pt" height="138.000000pt" viewBox="0 0 300.000000 138.000000"
 preserveAspectRatio="xMidYMid meet">
<metadata>
Created by potrace 1.10, written by Peter Selinger 2001-2011
</metadata>
<g transform="translate(0.000000,138.000000) scale(0.100000,-0.100000)"
fill="#ffffff" stroke="none">
<path d="M272 1354 c-72 -19 -104 -37 -154 -88 -66 -67 -91 -125 -95 -225 -4
-78 -2 -89 28 -150 17 -36 48 -83 67 -103 23 -25 31 -38 22 -39 -105 -6 -120
-19 -120 -109 0 -108 31 -183 103 -252 87 -82 173 -108 292 -87 77 13 164 66
205 124 61 88 59 87 60 19 0 -50 4 -64 23 -82 21 -19 34 -22 119 -22 92 0 97
1 117 26 19 24 21 40 21 180 0 152 0 153 26 173 22 17 39 20 127 19 56 -1 112
2 125 6 21 7 22 4 22 -36 0 -49 -9 -64 -57 -97 l-33 -22 0 -92 c0 -51 3 -102
6 -114 12 -44 76 -46 168 -5 l59 26 36 -21 c47 -27 89 -35 176 -36 57 0 85 6
134 28 l62 28 57 -28 c50 -25 68 -29 147 -28 109 1 157 19 236 89 l54 48 5
-49 c3 -28 10 -59 16 -69 14 -23 56 -25 114 -6 34 11 49 11 102 -2 75 -19 156
-17 217 5 39 14 48 14 79 1 64 -26 99 -26 122 4 20 25 21 36 18 320 -4 349 8
322 -140 322 -138 0 -136 2 -137 -192 -1 -82 -6 -158 -11 -168 -20 -38 -78
-34 -95 7 -7 16 -15 160 -15 275 0 70 -13 78 -129 78 -122 0 -134 -7 -141 -87
l-5 -58 -44 43 c-61 60 -128 92 -209 99 -37 3 -74 10 -84 14 -9 5 -24 31 -33
58 -21 63 -46 95 -98 125 -61 36 -108 42 -137 18 -23 -19 -23 -20 -26 -278 -2
-142 -6 -269 -9 -280 -6 -29 -63 -56 -88 -43 -30 17 -37 54 -37 200 0 91 -4
148 -12 162 -8 14 -11 56 -9 119 4 129 -4 138 -122 138 -110 0 -117 -7 -119
-122 0 -47 2 -91 6 -97 4 -7 0 -23 -9 -37 -9 -14 -15 -33 -14 -42 5 -56 0 -57
-48 -10 -60 58 -108 78 -187 78 -86 0 -157 -21 -209 -61 -49 -37 -102 -109
-112 -151 -12 -46 -31 -53 -46 -16 -7 18 -31 52 -52 75 -41 45 -41 47 16 57
56 10 71 40 64 130 -16 214 -213 361 -415 310z m213 -49 c55 -27 122 -97 147
-152 13 -29 22 -78 26 -130 l5 -83 -112 0 -111 0 0 64 c0 59 -2 66 -31 90 -17
14 -43 26 -58 26 -32 0 -77 -31 -86 -60 -6 -18 -16 -20 -111 -20 l-104 0 0 33
c0 78 88 194 180 237 59 27 194 25 255 -5z m1005 -190 l0 -95 -92 0 -93 0 0
95 0 95 93 0 92 0 0 -95z m317 71 c56 -27 99 -85 110 -150 l6 -36 -112 0 -111
0 0 105 0 105 28 0 c15 0 50 -11 79 -24z m-1408 -130 c7 -8 11 -30 9 -48 -3
-31 -5 -33 -42 -33 -30 0 -43 6 -58 26 -17 22 -18 30 -8 48 22 42 68 45 99 7z
m-133 -53 c10 -37 40 -55 117 -68 160 -28 254 -115 273 -254 l7 -51 -112 0
c-105 0 -111 1 -111 20 0 39 -41 66 -108 73 -144 15 -263 124 -279 255 l-5 47
106 0 c101 0 107 -1 112 -22z m754 -128 c0 -103 0 -105 -25 -111 -14 -3 -34
-18 -45 -31 -18 -23 -20 -41 -20 -194 l0 -169 -110 0 -110 0 0 169 c0 141 3
180 20 234 37 118 143 205 253 206 l37 1 0 -105z m98 90 c20 -9 48 -26 61 -38
30 -27 60 -93 61 -129 l0 -28 -105 0 -105 0 0 105 0 105 25 0 c14 0 42 -7 63
-15z m392 -155 c0 -168 0 -171 25 -195 13 -14 33 -25 45 -25 19 0 20 -6 20
-110 0 -100 -2 -110 -18 -110 -34 0 -117 29 -152 53 l-35 24 -32 -24 c-32 -25
-110 -53 -145 -53 -16 0 -18 10 -18 110 0 100 2 110 18 110 10 0 30 13 45 28
l27 28 0 167 0 167 110 0 110 0 0 -170z m410 1 c0 -165 1 -169 25 -195 13 -14
33 -26 45 -26 19 0 20 -6 20 -110 0 -100 -2 -110 -18 -110 -34 0 -117 29 -152
54 l-35 24 -28 -24 c-27 -23 -113 -54 -149 -54 -16 0 -18 10 -18 105 0 92 2
106 18 112 9 3 29 17 45 31 l27 26 0 168 0 168 110 0 110 0 0 -169z m203 153
c57 -19 129 -81 164 -141 35 -60 44 -176 19 -251 -32 -95 -139 -185 -237 -198
l-44 -6 3 110 c3 107 4 110 27 116 28 7 55 52 55 91 0 16 -12 38 -29 56 -26
26 -36 29 -90 29 l-61 0 0 105 0 105 73 0 c41 0 94 -7 120 -16z m437 -158 l0
-175 26 -20 c44 -35 111 -25 135 20 7 13 10 82 9 185 l-1 164 111 0 110 0 0
-306 0 -307 -36 6 c-20 3 -53 15 -73 25 -37 19 -37 19 -76 -2 -57 -30 -183
-30 -240 0 -39 21 -39 21 -76 2 -20 -10 -53 -22 -73 -25 l-36 -6 0 307 0 306
110 0 110 0 0 -174z m-504 -91 c19 -19 23 -31 18 -47 -16 -52 -54 -65 -94 -32
-32 27 -40 70 -18 92 20 20 67 14 94 -13z m-1886 -5 l88 0 4 -62 c4 -51 9 -65
32 -85 45 -39 112 -28 139 23 13 24 17 25 121 27 l108 2 -6 -38 c-9 -55 -48
-126 -93 -169 -118 -114 -309 -110 -426 8 -63 63 -80 106 -85 213 -4 86 -3 94
13 88 9 -4 56 -7 105 -7z m225 -47 c14 -15 25 -31 25 -36 0 -17 -49 -55 -66
-52 -11 2 -22 4 -26 4 -11 1 -35 53 -33 71 1 8 3 21 3 28 1 7 16 12 37 12 24
0 41 -8 60 -27z"/>
<path d="M1498 239 c-10 -6 -18 -19 -18 -30 0 -16 -5 -19 -20 -15 -11 3 -29 9
-40 12 -30 8 -70 -21 -70 -52 0 -15 -4 -23 -10 -19 -6 4 -8 15 -5 25 8 24 -29
50 -71 50 -50 0 -78 -45 -60 -99 11 -33 -8 -50 -32 -28 -32 29 -78 -7 -51 -39
15 -18 28 -18 50 2 17 15 20 15 44 -4 30 -23 87 -20 118 6 15 14 19 13 36 -2
15 -14 24 -15 40 -6 12 6 21 16 22 23 1 31 8 70 13 74 11 11 25 -9 31 -46 9
-52 29 -70 53 -47 23 20 32 20 46 0 8 -10 29 -16 63 -17 42 -1 57 3 78 23 l26
25 19 -25 c16 -21 26 -24 71 -22 73 2 89 20 82 86 -3 28 -10 59 -15 69 -11 22
-44 22 -57 0 -9 -17 -11 -16 -31 2 -20 18 -22 18 -49 2 -27 -16 -30 -16 -54 3
-14 11 -32 20 -40 20 -7 0 -22 9 -32 20 -23 26 -51 25 -66 -1 l-11 -21 -21 20
c-17 16 -26 18 -39 11z m112 -33 c0 -34 0 -34 30 -23 26 10 33 9 52 -11 25
-25 29 -86 6 -109 -14 -14 -25 -15 -80 -12 l-28 2 0 93 c0 56 4 94 10 94 6 0
10 -15 10 -34z m-80 15 c0 -14 -18 -23 -30 -16 -6 4 -8 11 -5 16 8 12 35 12
35 0z m-229 -42 c11 -5 17 -14 14 -20 -4 -5 -14 -5 -26 2 -23 12 -53 5 -47
-12 2 -7 19 -17 38 -23 27 -9 36 -17 38 -38 4 -36 -32 -53 -78 -37 -41 15 -29
28 20 22 32 -5 40 -3 40 10 0 10 -12 19 -27 23 -37 9 -53 22 -53 45 0 32 45
48 81 28z m99 1 c0 -7 6 -7 19 0 25 13 31 13 31 -3 0 -7 -10 -17 -22 -22 -20
-9 -22 -16 -20 -57 3 -38 0 -48 -12 -48 -13 0 -16 13 -16 70 0 40 4 70 10 70
6 0 10 -5 10 -10z m120 -60 c0 -40 -4 -70 -10 -70 -6 0 -10 30 -10 70 0 40 4
70 10 70 6 0 10 -30 10 -70z m278 6 c3 -56 4 -57 30 -54 25 3 27 6 30 61 4 83
26 71 27 -15 l0 -67 -30 0 c-16 -1 -39 -1 -49 -2 -28 0 -36 19 -36 84 0 80 24
73 28 -7z m-635 -53 c9 -9 -13 -34 -24 -27 -14 8 -11 34 4 34 8 0 17 -3 20 -7z"/>
<path d="M1626 157 c-27 -20 -18 -81 12 -85 46 -7 71 48 36 82 -19 19 -25 20
-48 3z"/>
<path d="M521 196 c-18 -10 -30 -11 -42 -3 -9 5 -24 7 -34 3 -14 -5 -17 -15
-13 -49 10 -83 50 -133 88 -110 15 10 25 10 44 2 34 -16 54 -6 72 36 8 19 16
35 18 35 3 0 15 -18 27 -40 24 -42 53 -52 77 -28 10 10 17 10 32 0 33 -20 49
-14 70 28 11 22 22 40 24 40 2 0 11 -16 21 -36 20 -42 38 -51 71 -34 19 11 27
11 36 2 36 -36 83 10 93 90 8 65 -5 80 -49 60 -17 -7 -27 -7 -35 1 -8 8 -19 8
-41 0 -18 -7 -32 -7 -36 -2 -7 12 -111 12 -116 -1 -2 -6 -14 -4 -30 4 -23 12
-29 12 -48 -1 -14 -10 -25 -11 -33 -5 -16 13 -109 13 -124 0 -9 -7 -17 -5 -28
6 -9 9 -17 16 -18 16 -1 -1 -13 -7 -26 -14z m-40 -56 c7 -27 16 -47 19 -45 4
3 13 25 20 50 15 55 30 53 47 -5 17 -59 20 -59 34 -6 11 44 24 64 36 53 9 -10
-38 -137 -52 -137 -7 0 -19 24 -27 53 l-15 52 -17 -52 c-10 -29 -23 -53 -30
-53 -7 0 -20 26 -30 58 -10 31 -21 63 -23 70 -3 6 2 12 10 12 10 0 20 -18 28
-50z m229 0 c7 -27 15 -48 20 -45 4 2 13 25 19 51 14 56 30 53 48 -9 7 -26 16
-47 18 -47 3 0 10 20 16 45 11 44 24 63 36 52 9 -10 -38 -137 -52 -137 -7 0
-18 20 -25 46 -14 50 -22 48 -40 -8 -6 -21 -17 -38 -24 -38 -7 0 -20 26 -30
58 -10 31 -21 63 -23 70 -3 6 2 12 10 12 10 0 19 -17 27 -50z m227 0 c7 -23
15 -45 17 -47 2 -3 10 17 18 43 7 26 18 49 24 51 6 2 17 -17 24 -42 7 -25 16
-47 20 -50 3 -2 12 18 19 45 8 32 18 50 28 50 8 0 13 -6 10 -12 -2 -7 -13 -39
-23 -70 -10 -32 -23 -58 -30 -58 -7 0 -20 24 -30 53 l-17 52 -15 -52 c-8 -29
-20 -53 -27 -53 -11 0 -55 106 -55 133 0 25 26 -5 37 -43z"/>
<path d="M2053 200 c-28 -12 -43 -40 -43 -84 0 -40 -2 -41 -32 -25 -25 13 -54
-10 -45 -35 11 -28 39 -31 57 -8 18 21 18 21 40 2 33 -29 104 -27 124 2 l16
22 23 -22 c35 -33 95 -35 129 -4 l28 26 23 -22 c28 -26 43 -28 51 -6 6 15 8
15 32 -1 24 -16 27 -16 45 1 18 16 20 16 40 -2 21 -19 21 -18 39 4 15 18 18
33 13 75 -8 77 -20 85 -115 86 -72 0 -82 -2 -104 -24 l-25 -25 -27 25 c-34 31
-89 34 -120 5 -12 -11 -25 -20 -30 -20 -5 0 -17 9 -27 20 -19 21 -55 25 -92
10z m82 -23 c13 -10 15 -16 6 -21 -6 -4 -18 -3 -26 4 -10 8 -19 9 -35 0 -17
-9 -20 -19 -18 -48 3 -37 3 -37 46 -35 48 2 55 -10 14 -25 -71 -25 -123 59
-70 115 24 26 55 30 83 10z m170 -12 c53 -52 7 -137 -64 -118 -22 6 -51 50
-51 78 0 23 45 65 70 65 12 0 32 -11 45 -25z m105 15 c0 -6 8 -5 20 2 16 10
24 10 40 0 16 -10 24 -10 40 0 36 23 55 0 58 -71 2 -38 -1 -61 -8 -61 -5 0
-10 21 -10 48 0 55 -14 76 -42 61 -14 -7 -18 -21 -18 -59 0 -28 -4 -50 -10
-50 -5 0 -10 22 -10 48 0 55 -14 76 -42 61 -14 -7 -18 -21 -18 -59 0 -28 -4
-50 -10 -50 -6 0 -10 30 -10 70 0 40 4 70 10 70 6 0 10 -5 10 -10z m-242 -76
c2 -20 0 -25 -6 -16 -5 8 -12 13 -16 13 -27 -4 -56 1 -56 8 0 10 49 31 65 27
6 -1 11 -16 13 -32z m-190 -41 c-4 -22 -22 -20 -26 1 -2 10 3 16 13 16 10 0
15 -7 13 -17z"/>
<path d="M2235 154 c-34 -35 3 -103 43 -78 24 16 28 65 6 81 -23 17 -29 16
-49 -3z"/>
</g>
</svg>
