<?xml version="1.0" standalone="no"?>
<!DOCTYPE svg PUBLIC "-//W3C//DTD SVG 20010904//EN"
 "http://www.w3.org/TR/2001/REC-SVG-20010904/DTD/svg10.dtd">
<svg version="1.0" xmlns="http://www.w3.org/2000/svg"
 width="900.000000pt" height="414.000000pt" viewBox="0 0 900.000000 414.000000"
 preserveAspectRatio="xMidYMid meet">
<metadata>
Created by potrace 1.10, written by Peter Selinger 2001-2011
</metadata>
<g transform="translate(0.000000,414.000000) scale(0.100000,-0.100000)"
fill="#ffffff" stroke="none">
<path d="M959 4085 c-4 -3 -44 -12 -90 -19 -99 -16 -230 -62 -324 -113 -124
-68 -298 -244 -365 -368 -12 -22 -29 -53 -39 -70 -9 -16 -25 -57 -36 -90 -11
-33 -22 -64 -26 -70 -8 -12 -25 -133 -21 -155 1 -8 2 -88 2 -178 0 -125 4
-170 15 -192 8 -16 15 -38 15 -49 0 -35 93 -230 117 -244 7 -4 13 -17 13 -27
0 -18 75 -105 185 -213 44 -43 47 -50 32 -59 -10 -5 -66 -11 -125 -13 -114 -3
-145 -12 -203 -58 -55 -43 -62 -75 -55 -287 5 -173 9 -209 34 -285 5 -16 16
-50 23 -75 7 -25 21 -55 30 -68 10 -13 23 -40 30 -60 6 -20 22 -50 35 -65 13
-16 24 -32 24 -37 0 -20 264 -270 285 -270 4 0 27 -13 51 -30 25 -16 57 -33
72 -36 15 -4 47 -17 72 -29 50 -25 168 -45 305 -52 125 -6 329 30 430 77 22
11 51 24 65 29 27 12 38 18 120 73 105 70 241 221 313 348 53 93 66 108 76 91
11 -17 20 -127 20 -247 1 -108 7 -127 59 -177 49 -47 107 -58 303 -57 346 3
368 7 427 94 37 55 34 11 33 591 0 171 4 326 9 346 16 57 51 101 110 137 54
32 56 33 155 29 359 -15 523 -9 579 20 28 15 31 14 48 -7 16 -20 18 -36 14
-114 -5 -108 -37 -185 -89 -216 -40 -23 -78 -53 -136 -107 l-46 -42 -3 -273
c-5 -334 0 -360 79 -413 61 -41 125 -39 301 8 58 16 244 103 254 118 13 22 76
6 179 -45 61 -30 130 -60 155 -66 25 -7 61 -18 80 -26 22 -9 70 -14 130 -13
52 0 118 0 145 -1 97 -5 120 -4 175 4 81 11 217 59 296 105 39 23 84 44 101
47 33 7 102 -19 163 -61 19 -13 57 -29 84 -35 27 -6 61 -17 75 -24 66 -34 162
-45 356 -42 120 3 201 8 220 16 42 18 63 25 125 45 81 27 198 93 234 134 11
11 24 21 29 21 6 0 38 28 71 63 90 93 146 134 157 116 6 -8 9 -61 7 -119 -1
-61 3 -122 10 -145 17 -55 58 -99 114 -120 41 -15 55 -16 115 -5 37 7 109 27
158 46 50 19 108 34 130 34 22 0 83 -14 135 -30 52 -17 109 -35 125 -40 34
-11 196 -24 265 -22 115 4 140 10 333 73 88 29 102 31 130 20 157 -63 227 -83
300 -86 l79 -4 43 40 c24 23 50 57 57 77 10 29 13 206 11 857 -1 451 -4 843
-8 871 -5 39 -15 62 -40 92 -51 59 -92 66 -375 66 -233 0 -236 0 -291 -26 -44
-20 -63 -36 -82 -69 l-26 -44 0 -425 c-1 -455 -5 -494 -54 -547 -26 -29 -96
-63 -128 -63 -30 0 -139 68 -139 87 0 7 -8 26 -17 40 -16 24 -18 70 -21 471
-3 422 -4 448 -23 485 -15 29 -33 44 -73 63 -51 23 -61 24 -292 25 -289 1
-336 -6 -381 -59 -32 -37 -57 -116 -51 -164 1 -12 -1 -60 -6 -105 -8 -78 -19
-102 -32 -68 -4 8 -13 15 -22 15 -9 0 -53 37 -97 83 -155 157 -307 242 -500
278 -110 21 -174 28 -245 25 -116 -4 -181 30 -195 100 -12 67 -57 190 -91 251
-33 60 -168 197 -224 228 -156 87 -307 118 -394 81 -33 -14 -75 -61 -91 -101
-4 -11 -9 -123 -11 -250 -2 -126 -4 -234 -4 -240 -1 -5 4 -46 10 -90 6 -46 8
-95 3 -115 -4 -19 -8 -89 -9 -155 -4 -640 -6 -708 -29 -760 -44 -98 -183 -170
-246 -128 -49 32 -109 98 -109 118 0 12 -6 27 -12 33 -10 10 -14 121 -18 461
l-5 448 -38 48 c-41 54 -43 61 -24 108 18 43 23 446 7 508 -8 28 -27 59 -54
85 -52 53 -83 57 -349 53 -187 -4 -195 -5 -231 -29 -20 -14 -48 -45 -62 -69
-22 -40 -25 -56 -25 -150 0 -359 -1 -348 21 -390 11 -22 20 -45 20 -50 0 -6
-18 -38 -40 -72 -39 -61 -40 -63 -39 -153 1 -50 -4 -103 -10 -118 -11 -28 -41
-39 -41 -15 0 18 -157 190 -206 225 -22 16 -50 33 -62 36 -12 4 -22 11 -22 16
0 5 -33 19 -72 31 -40 11 -78 26 -85 31 -17 14 -396 12 -475 -2 -67 -12 -156
-40 -225 -71 -24 -11 -46 -19 -49 -19 -4 0 -22 -13 -41 -30 -18 -16 -39 -30
-46 -30 -23 -1 -198 -184 -238 -249 -39 -65 -79 -141 -79 -151 0 -7 -6 -26
-14 -43 -7 -18 -19 -50 -26 -72 -12 -41 -51 -95 -69 -95 -12 0 -51 72 -51 95
0 29 -107 180 -184 259 -42 44 -75 87 -74 95 5 23 48 41 101 41 60 0 148 25
176 49 11 10 30 38 41 62 17 38 20 66 20 204 0 112 -5 181 -16 230 -19 84 -44
166 -55 180 -4 6 -14 28 -21 50 -8 22 -27 60 -44 84 -16 24 -34 52 -40 63 -22
38 -166 187 -207 214 -23 16 -62 45 -87 66 -49 40 -106 68 -142 68 -13 0 -31
7 -42 15 -34 26 -150 53 -251 59 -55 4 -118 9 -140 12 -22 3 -43 3 -46 -1z
m236 -105 c214 -26 424 -150 571 -335 21 -27 42 -52 45 -55 3 -3 9 -12 12 -20
4 -8 16 -28 27 -45 11 -16 22 -37 26 -45 3 -8 11 -28 19 -45 51 -114 75 -260
75 -456 l0 -166 -317 4 c-175 3 -324 6 -330 8 -10 3 -13 48 -13 178 0 143 -3
177 -15 187 -8 7 -15 18 -15 25 0 21 -84 91 -136 115 -56 24 -141 24 -207 -2
-57 -22 -122 -92 -147 -157 l-21 -56 -317 0 -317 1 4 79 c1 44 9 95 17 114 8
18 14 42 14 51 0 10 7 31 15 47 7 15 23 48 35 73 76 163 253 341 415 418 111
53 164 70 245 81 76 11 231 11 315 1z m3267 -642 l0 -283 -277 0 -277 0 -1
283 c-1 155 1 283 5 285 5 1 130 1 279 0 l272 -1 -1 -284z m828 265 c53 -15
170 -67 198 -88 149 -110 247 -285 259 -465 l4 -65 -326 1 -326 2 -1 313 c0
173 1 318 1 322 1 12 124 -1 191 -20z m-4195 -363 c14 -5 48 -33 76 -62 l49
-51 0 -94 c0 -88 -2 -96 -26 -120 -23 -23 -31 -25 -77 -19 -29 3 -67 6 -85 6
-26 0 -44 11 -86 53 -30 28 -61 67 -71 85 -15 32 -15 37 1 83 19 51 77 109
111 109 10 0 25 5 33 10 19 12 42 12 75 0z m-680 -187 c127 -3 256 0 288 5 66
10 67 10 91 -70 19 -61 61 -112 127 -153 31 -20 52 -25 106 -25 75 0 220 -25
271 -46 18 -8 39 -14 47 -14 28 0 198 -81 269 -128 209 -138 334 -371 353
-657 l5 -80 -324 1 -323 1 -9 49 c-12 69 -35 111 -81 148 -71 56 -98 66 -174
66 -151 0 -341 55 -500 145 -82 46 -256 226 -306 317 -69 124 -102 224 -115
353 -9 85 -1 112 29 99 9 -4 120 -9 246 -11z m2627 -438 l-1 -319 -68 -16
c-58 -14 -75 -24 -115 -64 -27 -26 -48 -52 -48 -58 0 -6 -7 -19 -15 -28 -14
-15 -16 -84 -18 -525 l-2 -507 -324 0 c-177 1 -325 3 -327 5 -3 2 -5 224 -4
493 0 497 4 558 42 669 5 17 14 44 18 60 15 54 36 105 48 117 7 7 12 20 12 29
0 10 5 21 11 24 5 4 15 17 20 28 32 71 123 176 208 241 64 49 166 106 190 106
10 0 26 7 37 15 10 8 31 15 46 15 15 0 39 5 55 11 29 12 155 27 206 25 l29 -1
0 -320z m228 298 c71 -21 164 -67 215 -107 132 -104 214 -260 230 -438 l7 -78
-316 0 c-174 0 -316 3 -316 8 -1 25 -1 628 0 635 0 12 116 -1 180 -20z m1250
-475 c0 -490 0 -498 22 -539 23 -45 84 -109 103 -109 7 0 18 -7 25 -15 8 -9
29 -15 56 -15 23 0 46 -4 49 -10 3 -5 6 -153 6 -327 l1 -318 -44 -3 c-23 -2
-61 2 -82 8 -21 6 -60 15 -85 20 -96 17 -231 80 -325 154 l-70 54 -41 -40
c-51 -50 -203 -138 -237 -138 -6 0 -24 -6 -41 -14 -51 -21 -241 -57 -262 -50
-8 3 -11 496 -5 657 0 4 20 7 43 7 58 0 139 57 193 136 l39 57 0 486 c0 267 1
488 3 491 1 3 148 5 327 5 l325 0 0 -497z m1743 477 c20 -8 46 -15 56 -15 11
0 32 -6 48 -14 15 -7 46 -22 68 -32 94 -44 165 -94 246 -174 83 -82 179 -207
179 -234 0 -8 7 -19 15 -26 8 -7 15 -21 15 -30 0 -10 6 -31 14 -47 36 -72 47
-164 43 -348 -4 -174 -13 -238 -43 -298 -8 -16 -14 -37 -14 -47 0 -10 -4 -21
-9 -24 -5 -4 -19 -27 -32 -54 -12 -26 -25 -49 -29 -52 -3 -3 -14 -18 -23 -33
-57 -89 -250 -255 -347 -298 -54 -24 -126 -51 -150 -56 -14 -3 -46 -11 -72
-19 -25 -8 -72 -14 -105 -12 -52 3 -58 5 -54 23 3 11 5 153 6 316 1 163 5 301
9 308 4 6 20 11 36 11 16 0 49 14 74 30 112 76 157 218 105 335 -21 48 -111
145 -134 145 -7 0 -26 7 -41 15 -22 11 -66 15 -181 15 l-152 0 -3 308 c-2 213
0 310 8 317 18 16 421 7 467 -10z m1400 -487 l2 -505 34 -50 c19 -28 57 -65
85 -84 48 -31 55 -33 143 -33 73 0 96 4 111 17 10 9 23 17 27 17 14 0 85 72
85 86 0 6 6 17 14 23 7 6 17 35 20 63 6 41 7 797 2 937 l-1 34 328 1 c212 1
327 -3 327 -9 4 -354 -2 -1821 -8 -1826 -9 -8 -111 5 -172 22 -80 21 -157 59
-213 102 -34 26 -40 28 -55 14 -24 -21 -132 -77 -149 -77 -8 0 -27 -6 -41 -14
-78 -40 -322 -59 -427 -32 -33 8 -71 17 -85 19 -55 10 -162 56 -215 93 l-37
24 -36 -28 c-57 -44 -135 -81 -217 -102 -59 -15 -156 -29 -170 -23 -7 2 -9
316 -8 921 2 504 3 917 3 917 0 0 147 0 326 -1 l326 -1 1 -505z m-1919 10 c5
-464 7 -489 26 -526 26 -50 88 -122 105 -122 7 0 18 -7 25 -15 7 -8 34 -15 63
-17 l52 -3 3 -328 2 -329 -62 5 c-74 5 -170 24 -215 43 -17 8 -35 14 -41 14
-30 0 -171 79 -234 131 -26 22 -49 39 -52 39 -3 0 -34 -22 -67 -49 -84 -68
-222 -133 -319 -152 -25 -4 -61 -13 -80 -18 -19 -6 -54 -11 -77 -11 l-43 0 0
318 c0 234 3 321 12 330 7 7 26 12 44 12 17 0 37 7 44 15 7 8 18 15 25 15 12
0 105 95 105 107 0 4 8 15 18 26 16 18 17 58 19 511 2 270 3 492 3 494 0 1
144 1 319 0 l320 -3 5 -487z m352 -248 c37 -13 96 -73 114 -118 10 -25 10 -42
2 -70 -6 -20 -14 -49 -17 -64 -3 -16 -12 -28 -20 -28 -7 0 -22 -12 -33 -27
-23 -33 -90 -56 -130 -47 -36 9 -110 66 -139 108 -18 24 -26 52 -30 104 -7 90
6 125 55 145 40 15 144 14 198 -3z m-5621 -60 l300 -5 -3 -135 c-4 -159 11
-214 76 -290 62 -72 105 -90 211 -90 67 0 92 4 101 15 7 8 19 15 27 15 18 0
93 69 93 86 0 6 7 17 15 24 8 7 15 26 15 42 0 16 6 31 13 34 7 2 156 6 331 7
l318 2 -5 -55 c-6 -68 -25 -155 -43 -197 -8 -17 -14 -35 -14 -40 0 -9 -61
-135 -70 -143 -3 -3 -19 -25 -35 -49 -51 -75 -213 -231 -265 -254 -8 -4 -28
-16 -45 -27 -16 -11 -37 -22 -45 -26 -8 -3 -28 -11 -45 -18 -85 -36 -95 -39
-278 -67 -73 -11 -99 -11 -160 0 -39 8 -90 16 -112 18 -22 3 -54 11 -72 19
-17 8 -37 14 -44 14 -11 0 -101 43 -177 85 -13 7 -52 37 -85 66 -173 151 -263
287 -317 479 -16 57 -31 480 -17 497 5 7 14 9 21 5 6 -4 146 -9 311 -12z m594
-78 c50 -8 59 -14 113 -73 46 -51 58 -71 58 -97 0 -46 -42 -107 -97 -141 -41
-26 -55 -29 -105 -26 -47 3 -66 10 -98 35 -22 18 -37 36 -34 42 3 5 -2 18 -11
28 -12 13 -18 42 -21 95 -3 63 0 83 17 117 l21 40 51 -6 c29 -3 76 -9 106 -14z"/>
<path d="M4731 722 c-13 -15 -35 -44 -48 -64 l-25 -37 -50 54 c-53 58 -68 63
-123 41 -44 -19 -69 -66 -61 -117 3 -21 2 -40 -4 -44 -9 -6 -58 20 -71 37 -3
5 -51 9 -107 11 l-102 2 -47 -49 -48 -49 2 -73 c1 -80 -8 -87 -53 -35 -19 22
-20 27 -8 50 27 51 18 74 -42 119 -62 46 -113 58 -199 47 -45 -5 -62 -13 -101
-49 -42 -39 -48 -50 -59 -109 -12 -63 -11 -69 11 -113 13 -26 24 -57 24 -69 0
-23 -41 -75 -60 -75 -5 0 -29 18 -51 40 -44 43 -74 50 -119 27 -26 -13 -70
-71 -70 -93 0 -18 48 -73 79 -89 25 -12 32 -11 69 8 23 11 44 29 48 39 3 10
16 25 29 34 23 15 25 14 66 -26 66 -64 107 -80 192 -74 105 8 111 10 173 64
31 28 61 50 65 50 4 0 28 -20 52 -45 34 -34 52 -45 76 -45 41 0 101 52 101 89
0 15 6 36 14 46 8 11 12 34 9 54 -6 49 27 135 52 138 35 5 62 -54 70 -153 8
-100 28 -145 76 -169 26 -14 32 -14 57 -1 32 17 78 60 84 77 7 21 52 2 70 -30
33 -60 79 -73 259 -73 91 0 121 13 173 76 30 38 43 46 70 46 27 0 38 -7 65
-45 50 -70 76 -80 211 -77 134 2 167 11 200 54 14 17 34 40 46 51 18 18 20 26
13 64 -5 25 -11 87 -13 138 -7 141 -52 225 -121 225 -28 0 -41 -8 -77 -50 -24
-27 -46 -50 -50 -50 -4 0 -31 22 -59 50 -70 68 -92 67 -164 -5 -29 -30 -56
-55 -58 -55 -3 0 -29 22 -58 50 -30 27 -65 53 -79 58 -56 20 -97 32 -112 32
-8 0 -41 27 -72 60 -67 70 -104 78 -145 32z m94 -114 c0 -54 2 -98 5 -100 3
-1 24 11 47 25 104 65 229 -2 254 -137 14 -78 -1 -156 -42 -207 -41 -52 -60
-61 -131 -62 -46 0 -65 5 -90 23 l-31 23 -17 -23 c-11 -14 -25 -21 -41 -18
l-24 3 -3 275 c-1 151 0 281 3 288 3 8 17 12 37 10 l33 -3 0 -97z m-253 53
c15 -28 15 -30 -6 -50 -31 -29 -70 -27 -90 4 -15 23 -15 27 0 50 24 37 73 35
96 -4z m93 -91 c0 -13 -6 -25 -12 -27 -9 -3 -13 6 -13 27 0 21 4 30 13 28 6
-3 12 -15 12 -28z m-317 -29 c2 -12 1 -34 -2 -47 -5 -20 -12 -24 -47 -24 -32
0 -47 -7 -71 -30 -25 -26 -29 -36 -24 -68 3 -20 7 -82 8 -137 l3 -100 -45 0
-45 0 2 204 c2 210 5 225 43 218 8 -1 19 -12 25 -25 11 -26 27 -28 45 -7 7 8
17 15 22 15 5 0 16 7 25 16 22 22 57 14 61 -15z m-483 9 c3 -5 14 -10 24 -10
21 0 71 -40 71 -57 0 -6 -11 -18 -25 -27 -23 -15 -26 -15 -61 9 -48 32 -108
34 -141 3 -13 -12 -23 -25 -23 -29 0 -20 47 -49 89 -55 25 -4 51 -10 56 -14 6
-4 21 -11 35 -15 44 -14 70 -51 70 -101 0 -57 -10 -76 -57 -105 -32 -20 -51
-24 -116 -23 -66 1 -83 5 -118 28 -27 18 -39 32 -35 42 3 9 6 22 6 30 0 19 40
18 69 -2 59 -42 165 -35 177 11 3 13 3 29 -1 35 -9 14 -61 35 -109 44 -41 8
-76 26 -113 60 -17 14 -23 31 -23 61 0 46 24 81 76 108 33 17 140 22 149 7z
m1510 -7 c4 -10 8 -87 8 -171 2 -123 5 -155 17 -163 23 -15 111 -5 144 16 l29
19 -6 147 c-6 155 -3 169 39 169 38 0 52 -32 42 -97 -5 -32 -7 -119 -6 -193
l3 -135 -29 -3 c-22 -3 -35 3 -48 20 -18 22 -19 22 -33 4 -17 -22 -86 -37
-138 -29 -27 4 -46 16 -66 40 -28 34 -28 36 -33 201 -3 92 -3 173 0 180 7 19
69 15 77 -5z m-817 -206 l2 -208 -37 3 -38 3 -3 185 c-3 225 -2 232 41 228
l32 -3 3 -208z m-1082 -122 c34 -52 -19 -109 -79 -86 -22 8 -27 17 -27 42 0
65 72 95 106 44z"/>
<path d="M4893 476 c-64 -23 -73 -40 -73 -136 0 -82 2 -88 27 -110 36 -31 119
-40 156 -16 82 54 73 214 -14 258 -39 20 -52 20 -96 4z"/>
<path d="M7316 622 c-4 -4 -41 -9 -82 -13 -67 -5 -78 -9 -110 -40 -19 -18 -38
-47 -42 -64 -10 -38 -50 -42 -68 -7 -7 13 -23 31 -37 40 -13 10 -44 30 -67 47
-40 28 -50 30 -134 30 -108 0 -147 -15 -210 -81 -24 -24 -47 -44 -53 -44 -6 0
-36 25 -67 55 -58 56 -100 75 -168 75 -20 0 -47 -4 -60 -9 -13 -5 -35 -12 -50
-15 -35 -8 -81 -47 -118 -102 -28 -43 -31 -52 -34 -155 -4 -128 -13 -145 -53
-105 -57 58 -100 59 -155 7 -33 -33 -39 -44 -34 -65 7 -30 65 -91 94 -98 34
-9 78 20 106 73 15 27 31 49 35 49 4 0 27 -18 51 -40 78 -72 121 -90 215 -90
46 0 97 6 113 13 30 12 92 85 92 107 0 25 44 6 82 -36 65 -69 99 -83 217 -87
56 -2 101 1 101 5 0 5 12 14 28 21 15 7 49 36 76 65 62 67 83 67 113 3 24 -51
54 -71 105 -71 23 0 39 10 67 42 l37 41 37 -37 c69 -69 96 -68 176 8 30 28 45
37 48 28 3 -8 19 -29 35 -48 52 -59 114 -44 156 39 21 42 22 51 14 196 -9 161
-15 180 -73 223 -54 39 -89 46 -158 32 -44 -9 -78 -10 -110 -4 -89 17 -109 19
-115 12z m-971 -72 c3 -5 14 -10 23 -10 9 -1 32 -13 50 -29 29 -24 31 -30 17
-41 -8 -7 -15 -19 -15 -26 0 -22 -27 -16 -72 16 -45 33 -63 36 -105 18 -63
-27 -92 -93 -78 -179 10 -61 44 -91 108 -97 42 -3 56 0 76 17 13 12 34 21 46
21 47 0 60 -55 18 -75 -11 -6 -27 -16 -34 -22 -22 -16 -99 -23 -149 -12 -51
11 -88 40 -127 102 -36 57 -36 156 0 213 49 77 107 113 184 114 28 0 55 -4 58
-10z m511 -9 c46 -22 91 -70 100 -106 3 -14 10 -28 15 -31 5 -3 9 -31 8 -62
-1 -72 -39 -145 -98 -187 -37 -26 -50 -29 -111 -29 -59 1 -76 5 -110 29 -21
15 -42 36 -45 46 -4 11 -10 19 -14 19 -4 0 -15 27 -25 61 -18 58 -18 63 -1
118 40 132 168 197 281 142z m359 -9 c9 -20 35 -31 35 -14 0 15 63 42 100 42
29 0 46 -7 68 -30 32 -32 56 -38 69 -17 17 26 64 47 108 47 25 0 45 -4 45 -10
0 -5 6 -10 14 -10 7 0 22 -12 32 -27 17 -25 19 -49 19 -203 l0 -175 -37 -3
-38 -3 0 157 c0 148 -1 159 -22 181 -25 27 -44 29 -85 8 -56 -28 -58 -36 -58
-194 l0 -146 -37 -3 -38 -3 0 157 c0 148 -1 159 -22 181 -25 27 -44 29 -85 8
-56 -28 -58 -36 -58 -194 l0 -146 -37 -3 -38 -3 0 203 c0 209 4 232 40 226 8
-2 19 -13 25 -26z m-731 -137 c12 -18 15 -42 13 -90 -3 -62 -18 -89 -25 -46
-3 17 -9 19 -33 14 -16 -3 -29 -1 -29 4 0 6 -29 13 -64 15 -35 3 -68 8 -74 12
-17 10 -1 47 25 57 13 5 21 13 18 19 -4 6 12 10 42 10 26 1 59 7 73 15 33 19
35 19 54 -10z m-559 -171 c10 -11 15 -29 13 -52 -2 -28 -8 -37 -29 -44 -16 -5
-37 -5 -52 1 -23 9 -27 17 -27 49 0 21 5 43 12 50 17 17 64 15 83 -4z"/>
<path d="M6724 475 c-91 -40 -101 -197 -18 -260 10 -8 41 -15 68 -15 42 0 53
5 82 34 32 32 34 38 34 104 0 77 -17 109 -70 137 -35 18 -55 18 -96 0z"/>
<path d="M1599 606 c-14 -6 -38 -21 -53 -33 -46 -36 -62 -37 -110 -4 -48 33
-96 40 -116 17 -9 -12 -5 -16 25 -22 45 -8 65 -28 65 -63 0 -15 3 -31 7 -35 9
-8 29 -85 42 -154 4 -23 11 -45 15 -49 10 -10 35 29 42 67 3 19 12 49 20 67 8
17 14 38 14 47 0 9 4 24 9 34 6 9 12 29 15 44 8 35 42 46 67 21 11 -10 26 -42
34 -71 8 -29 21 -76 30 -105 9 -28 19 -65 23 -80 4 -15 11 -28 16 -28 11 0 46
105 46 138 0 12 4 25 10 28 5 3 12 28 16 55 8 57 30 83 71 78 33 -4 43 -36 21
-71 -7 -12 -24 -56 -37 -97 -13 -41 -30 -89 -38 -107 -7 -17 -13 -38 -13 -47
0 -9 -4 -24 -9 -34 -6 -9 -12 -29 -16 -44 -4 -23 -11 -28 -34 -28 -44 0 -61
10 -61 34 0 12 -13 60 -30 106 -16 47 -30 96 -30 110 0 14 -4 31 -9 38 -11 17
-36 -20 -45 -68 -4 -19 -11 -44 -16 -55 -5 -11 -18 -53 -30 -92 -20 -68 -23
-73 -50 -73 -44 0 -60 10 -60 36 0 14 -7 41 -15 61 -8 19 -15 43 -15 52 0 9
-6 28 -14 43 -8 15 -17 41 -21 58 -4 17 -13 43 -21 58 -8 15 -14 32 -14 38 0
6 -8 28 -19 49 -18 38 -19 38 -31 16 -14 -28 -4 -166 16 -196 7 -11 20 -47 28
-79 22 -85 47 -126 96 -164 48 -37 75 -37 120 -2 14 11 38 27 54 36 26 15 29
14 50 -5 12 -12 27 -21 33 -21 6 0 16 -7 23 -15 7 -9 29 -15 51 -15 30 0 47 8
78 35 40 36 85 123 76 147 -3 8 6 25 20 38 25 23 27 24 53 8 19 -12 29 -28 34
-58 11 -63 83 -157 131 -170 34 -10 43 -8 81 14 23 14 48 32 55 40 15 18 51 6
91 -31 37 -33 81 -39 115 -17 31 20 102 124 112 162 7 27 45 72 62 72 6 0 11
-9 11 -20 0 -11 9 -29 20 -40 11 -11 20 -29 20 -41 0 -47 66 -124 119 -139 38
-10 60 -2 103 38 33 30 74 26 120 -13 18 -15 42 -25 61 -25 38 0 91 30 108 61
6 13 22 34 35 48 19 20 24 37 24 76 0 52 18 117 38 137 18 18 15 133 -3 148
-12 10 -16 9 -21 -6 -3 -11 -10 -27 -15 -36 -5 -10 -9 -23 -9 -30 0 -7 -6 -25
-14 -40 -8 -15 -17 -41 -21 -58 -4 -17 -13 -43 -21 -58 -8 -15 -14 -34 -14
-43 0 -9 -7 -33 -15 -52 -8 -20 -15 -47 -15 -61 0 -13 -7 -27 -16 -30 -27 -10
-74 -7 -78 7 -2 6 -11 39 -21 72 -9 33 -20 69 -25 80 -5 11 -11 35 -14 52 -8
46 -36 88 -47 71 -5 -7 -9 -24 -9 -38 0 -14 -14 -63 -30 -110 -17 -46 -30 -94
-30 -106 0 -24 -17 -34 -60 -34 -24 0 -30 6 -43 48 -8 26 -18 62 -22 79 -3 18
-11 35 -16 38 -5 4 -9 16 -9 28 0 12 -7 35 -15 51 -8 15 -15 36 -15 45 0 9 -9
35 -20 56 -27 52 -20 85 19 85 37 0 58 -25 66 -83 4 -26 11 -50 16 -53 5 -3 9
-15 9 -27 0 -25 32 -133 43 -143 3 -4 8 -1 10 7 2 8 11 37 19 64 9 28 23 77
33 110 25 86 45 125 66 125 25 0 49 -27 49 -55 0 -13 5 -27 10 -30 6 -3 10
-15 10 -27 0 -11 6 -34 14 -51 8 -18 17 -48 20 -67 7 -38 32 -77 42 -67 4 4
11 26 15 49 13 69 33 146 42 154 4 4 7 20 7 35 0 32 23 59 50 59 35 0 52 11
39 26 -18 22 -69 16 -105 -11 -36 -28 -94 -44 -94 -27 0 18 -66 52 -101 52
-23 -1 -45 -11 -69 -30 -43 -38 -64 -38 -108 1 -30 27 -40 30 -73 25 -22 -3
-56 -9 -78 -12 -23 -4 -41 -2 -45 5 -4 6 -25 11 -48 11 -31 0 -46 -6 -67 -29
-22 -23 -32 -27 -61 -23 -19 2 -47 16 -62 30 -37 34 -80 32 -135 -7 -24 -17
-48 -31 -53 -31 -5 0 -31 14 -57 30 -53 34 -75 37 -117 15 -36 -19 -70 -19
-86 0 -21 26 -82 19 -120 -15 -37 -31 -87 -40 -96 -16 -3 8 -22 25 -42 39 -31
20 -41 22 -63 13z m483 -63 c9 -10 18 -31 21 -48 12 -67 30 -131 38 -139 5 -6
9 -27 9 -47 0 -40 17 -60 31 -38 5 8 14 32 20 54 6 22 15 49 19 60 5 11 18 52
30 92 16 54 27 74 43 79 28 9 63 -34 71 -88 4 -21 10 -47 15 -56 5 -9 18 -47
28 -83 20 -72 34 -86 45 -42 4 15 14 55 23 88 9 33 21 80 27 105 13 57 33 80
69 80 22 0 30 -6 35 -25 4 -17 1 -32 -9 -43 -8 -9 -18 -33 -22 -52 -4 -19 -11
-39 -15 -45 -4 -5 -11 -25 -15 -43 -4 -18 -13 -45 -21 -60 -8 -15 -14 -35 -14
-44 0 -9 -4 -27 -9 -40 -5 -13 -12 -35 -15 -50 -5 -24 -11 -28 -39 -28 -44 0
-53 9 -62 57 -4 24 -11 45 -16 49 -5 3 -9 15 -9 27 0 12 -7 35 -15 51 -8 15
-15 40 -15 55 0 32 -14 56 -28 47 -10 -6 -15 -19 -49 -136 -9 -30 -19 -64 -24
-75 -4 -11 -10 -32 -13 -48 -5 -23 -12 -27 -39 -27 -44 0 -53 9 -61 54 -4 21
-11 46 -16 55 -4 9 -25 70 -45 136 -21 66 -42 124 -47 130 -4 5 -8 19 -8 32 0
19 5 23 33 23 20 0 40 -7 49 -17z"/>
</g>
</svg>
