<?xml version="1.0" standalone="no"?>
<!DOCTYPE svg PUBLIC "-//W3C//DTD SVG 20010904//EN"
 "http://www.w3.org/TR/2001/REC-SVG-20010904/DTD/svg10.dtd">
<svg version="1.0" xmlns="http://www.w3.org/2000/svg"
 width="450.000000pt" height="102.000000pt" viewBox="0 0 450.000000 102.000000"
 preserveAspectRatio="xMidYMid meet">
<metadata>
Created by potrace 1.10, written by Peter Selinger 2001-2011
</metadata>
<g transform="translate(0.000000,102.000000) scale(0.100000,-0.100000)"
fill="#ffffff" stroke="none">
<path d="M323 844 c-54 -27 -122 -92 -124 -119 -2 -23 -4 -29 -10 -40 -4 -5
-4 -27 -2 -48 4 -29 10 -38 30 -43 17 -5 29 -1 39 12 9 11 13 13 9 7 -3 -7 -1
-13 4 -13 13 0 12 -78 -1 -86 -4 -3 -8 -11 -8 -17 0 -7 4 -6 10 3 7 11 10 6
10 -20 0 -72 97 -192 202 -253 40 -23 58 -27 126 -27 l80 0 44 43 c37 36 47
53 58 105 11 56 11 69 -5 122 -10 33 -22 60 -27 60 -4 0 -8 8 -8 18 0 10 -11
29 -25 42 -14 13 -25 28 -25 35 0 12 -64 75 -77 75 -5 0 -14 5 -21 12 -15 15
-81 38 -111 38 -21 0 -23 3 -17 32 3 18 10 34 15 38 5 3 1 15 -9 28 -26 31
-89 30 -157 -4z m147 -23 c0 -15 -10 -19 -51 -23 -84 -8 -178 -95 -179 -165 0
-23 -14 -38 -29 -29 -16 10 9 100 38 141 37 51 118 95 177 95 36 0 44 -3 44
-19z m-25 -80 c0 -8 -12 -15 -28 -17 -42 -4 -74 -29 -88 -69 -13 -34 -39 -49
-39 -21 0 61 69 129 125 124 18 -2 30 -9 30 -17z m194 -99 c102 -105 148 -216
121 -297 -7 -21 -28 -55 -47 -76 -35 -38 -36 -39 -108 -39 -68 0 -76 2 -134
41 -101 67 -171 163 -171 234 0 69 46 143 115 186 21 13 49 19 94 19 l64 0 66
-68z"/>
<path d="M468 663 c-34 -5 -34 -10 -4 -46 l23 -29 39 21 c21 12 44 21 51 21
22 0 14 -28 -9 -36 -44 -13 -109 -76 -136 -130 -14 -30 -30 -54 -34 -54 -21 0
-5 62 27 109 l36 52 -21 29 c-12 17 -25 30 -31 30 -14 0 -56 -71 -64 -107 -9
-45 14 -88 83 -155 71 -70 123 -98 181 -98 37 0 49 5 76 34 43 46 49 76 30
142 -17 61 -94 167 -145 202 -32 21 -46 23 -102 15z m148 -111 c12 -10 29 -33
38 -50 9 -18 21 -32 26 -32 5 0 7 -6 4 -13 -3 -8 -1 -24 4 -38 10 -28 -2 -63
-35 -98 -37 -39 -115 -16 -189 56 -21 21 -29 63 -13 63 4 0 13 16 20 34 7 19
16 33 20 30 4 -2 16 7 27 21 11 13 22 22 24 19 3 -2 11 2 18 11 16 19 30 19
56 -3z"/>
<path d="M1850 742 c-31 -14 -57 -38 -64 -58 -6 -20 -12 -20 -130 -17 -69 2
-136 -1 -150 -7 -14 -5 -26 -6 -26 -2 0 9 -189 14 -204 5 -17 -11 -46 -14 -46
-5 0 5 -52 10 -115 11 -130 2 -157 -8 -170 -62 -4 -18 -8 -34 -9 -37 -1 -3 -7
-27 -14 -55 -7 -27 -17 -64 -22 -81 -6 -17 -10 -43 -10 -58 0 -63 29 -2 61
129 l32 134 124 0 c146 1 149 -2 126 -103 -19 -83 -45 -106 -119 -104 -30 1
-58 6 -61 11 -9 15 -23 -15 -23 -50 l0 -33 -60 0 c-60 0 -80 -12 -37 -24 61
-16 102 -2 126 42 9 17 20 22 54 22 23 0 54 7 70 14 23 13 31 13 55 0 32 -17
49 -17 89 -4 30 11 39 24 63 87 13 35 30 46 51 32 11 -6 11 -11 1 -21 -14 -14
-17 -62 -2 -53 6 3 10 -1 10 -10 0 -9 9 -19 20 -22 11 -3 18 -9 15 -13 -3 -4
7 -8 23 -7 74 3 102 -3 102 -20 0 -15 2 -16 10 -3 8 12 10 11 10 -7 0 -33 29
-43 120 -43 87 0 90 2 148 74 10 12 17 14 26 7 7 -6 57 -9 122 -7 111 4 130 6
150 19 7 4 17 0 23 -7 9 -11 36 -14 104 -13 51 0 94 3 97 6 3 3 15 12 28 19
20 11 27 10 50 -6 30 -21 147 -28 170 -10 8 8 12 7 12 -3 0 -11 2 -11 10 1 6
9 10 10 10 3 0 -12 43 -12 300 1 111 6 118 6 232 0 63 -4 104 -1 118 6 15 8
25 8 34 1 15 -13 200 -18 234 -7 14 5 36 1 62 -11 43 -20 51 -33 19 -33 -11 0
-18 -3 -15 -8 8 -13 -79 0 -96 15 -14 13 -19 13 -41 -2 -17 -11 -27 -13 -32
-6 -9 16 -41 13 -59 -5 -22 -21 -21 -107 0 -129 10 -9 25 -14 35 -12 11 3 22
1 25 -4 3 -5 13 -5 24 1 13 7 21 7 26 -1 4 -8 9 -7 15 2 6 11 11 11 21 1 15
-15 98 -16 98 -1 0 6 5 7 13 2 15 -10 145 -14 151 -4 3 4 20 6 38 5 18 -1 40
2 50 7 9 5 19 5 22 1 3 -4 30 -7 60 -7 31 1 56 -2 56 -7 0 -11 87 -10 95 2 3
5 12 7 19 4 42 -16 66 105 28 140 -17 15 -22 15 -54 2 -20 -9 -38 -13 -41 -9
-3 3 -20 0 -38 -6 -20 -7 -36 -7 -43 -2 -6 6 -24 8 -39 7 -15 -2 -27 1 -27 5
0 5 -13 6 -29 3 -16 -3 -38 -1 -50 5 -17 9 -26 9 -43 -4 -13 -8 -27 -15 -33
-15 -5 0 -3 5 5 11 12 9 11 9 -5 4 -46 -16 -55 -16 -75 3 l-21 19 30 12 c21 9
35 10 49 2 30 -16 78 -13 97 6 16 15 19 15 44 0 21 -12 53 -16 140 -15 111 1
112 1 136 30 14 16 26 36 26 44 2 16 3 23 11 44 12 30 38 150 38 172 0 46 -26
68 -81 68 -45 0 -54 -4 -82 -35 -27 -31 -36 -35 -79 -35 -42 0 -49 3 -62 29
-18 34 -33 41 -91 41 -53 0 -63 -11 -97 -114 l-26 -81 -44 0 c-42 0 -43 1 -46
35 -5 52 -33 70 -111 71 -82 1 -125 0 -173 -7 -20 -3 -39 -1 -42 4 -3 5 -47 7
-98 5 -105 -3 -136 -18 -154 -72 -14 -44 -47 -65 -90 -57 -28 6 -34 11 -34 31
0 14 3 25 8 25 4 0 8 13 9 28 3 42 -22 52 -139 53 -106 1 -142 -6 -132 -23 7
-11 -22 3 -79 39 -50 32 -103 33 -149 5 -31 -19 -55 -23 -155 -27 -143 -6
-142 -6 -273 -1 -120 5 -140 10 -140 38 0 12 -12 24 -35 34 -38 15 -43 16 -65
6z m79 -60 c-8 -25 -14 -27 -59 -27 -48 0 -50 1 -50 27 0 25 3 27 53 30 66 4
68 3 56 -30z m2318 -117 l-33 -129 -70 1 c-38 1 -92 2 -121 2 -68 1 -77 16
-57 97 21 82 47 104 125 104 40 0 59 -4 60 -12 1 -23 18 26 18 54 1 25 4 27
54 30 29 2 53 -1 54 -7 2 -5 -12 -68 -30 -140z m-267 141 c0 -3 -4 -15 -9 -28
-8 -20 -14 -23 -58 -20 -47 4 -50 5 -45 28 4 22 9 24 58 24 30 0 54 -2 54 -4z
m-1337 -22 c3 -4 2 -15 -4 -25 -9 -17 -6 -19 35 -19 43 0 45 -1 37 -22 -7 -19
-16 -23 -49 -22 l-40 1 -14 -59 -15 -58 44 0 c40 0 44 -2 41 -22 -3 -21 -8
-23 -80 -24 -105 -2 -116 7 -101 78 6 29 15 61 19 72 6 15 4 17 -15 11 -20 -6
-22 -4 -19 17 2 15 11 24 24 26 12 2 24 12 27 22 4 14 16 20 48 23 24 2 47 4
50 5 3 1 9 -1 12 -4z m-1263 -56 c0 -9 3 -9 12 0 13 13 88 17 88 5 -1 -41 -13
-53 -56 -53 -50 0 -55 -6 -73 -91 l-12 -56 -55 -2 c-42 -1 -55 2 -51 11 3 7
15 55 27 106 l22 92 49 0 c31 0 49 -4 49 -12z m380 -3 c10 -12 9 -29 -5 -85
-10 -39 -23 -77 -31 -84 -19 -19 -128 -27 -235 -17 -9 0 -19 7 -22 15 -9 23
30 156 50 172 27 20 226 20 243 -1z m150 6 c0 -27 -54 -229 -66 -248 -12 -19
-24 -22 -109 -25 -76 -2 -94 0 -90 10 3 8 5 18 5 22 0 5 23 10 51 12 l51 3 23
90 c12 50 25 102 29 118 6 25 10 27 56 27 28 0 50 -4 50 -9z m289 -5 c8 -10 8
-26 -1 -65 l-12 -52 -85 2 c-73 2 -86 -1 -89 -15 -3 -14 8 -16 77 -16 80 0 81
0 81 -26 l0 -25 -127 5 c-71 2 -130 5 -132 5 -5 1 6 82 18 131 7 25 19 51 28
58 24 18 227 17 242 -2z m271 2 c-1 -31 -18 -40 -76 -37 l-59 3 -12 -40 c-21
-72 -20 -74 48 -74 57 0 60 -1 57 -22 -3 -22 -7 -23 -102 -23 -133 0 -136 2
-111 100 12 50 26 81 39 91 27 19 216 20 216 2z m531 -10 c-7 -19 -14 -21 -89
-19 -50 1 -82 -2 -82 -8 0 -6 30 -11 68 -13 l67 -3 -1 -48 c-1 -79 -21 -91
-155 -95 l-111 -4 4 24 c3 22 7 23 82 23 54 0 80 4 83 13 4 9 -14 12 -66 12
-82 0 -91 8 -72 70 18 62 39 70 168 70 111 0 112 0 104 -22z m387 0 c-3 -21
-9 -23 -70 -26 l-67 -3 -10 -50 c-6 -27 -11 -52 -11 -54 0 -3 27 -5 61 -5 57
0 60 -1 57 -22 -3 -22 -8 -23 -95 -26 -138 -4 -148 6 -117 116 23 84 37 92
156 92 97 0 99 0 96 -22z m281 13 c12 -8 11 -21 -4 -85 -26 -111 -33 -116
-164 -116 -127 0 -137 6 -126 72 9 54 40 124 57 131 22 9 222 7 237 -2z m291
4 c0 -3 -9 -37 -19 -77 -11 -40 -22 -84 -25 -98 -5 -23 -10 -25 -56 -26 -27 0
-50 3 -50 6 0 8 39 169 45 188 4 11 105 19 105 7z m-615 -96 c0 -21 -5 -24
-37 -27 -39 -3 -46 6 -32 43 5 11 16 15 38 12 25 -3 31 -8 31 -28z m-875 12
c0 -5 -4 -21 -9 -34 -9 -24 -12 -25 -50 -13 -48 14 -55 20 -48 41 5 11 21 15
57 15 27 0 50 -4 50 -9z m218 -19 c2 -14 -2 -22 -12 -22 -17 0 -39 34 -29 44
14 13 38 0 41 -22z m407 -49 c-10 -53 -10 -53 -69 -53 l-53 0 10 40 c10 37 13
39 56 43 25 2 50 4 55 5 4 1 5 -15 1 -35z m691 11 c-3 -9 -9 -26 -11 -37 -5
-19 -13 -22 -55 -22 -28 0 -50 3 -50 7 0 5 3 21 6 38 6 29 8 30 61 30 46 0 54
-3 49 -16z m-278 -184 c16 -48 16 -47 42 23 16 46 30 31 30 -33 0 -38 -4 -60
-11 -60 -8 0 -10 12 -6 35 3 21 2 33 -4 30 -5 -4 -9 -12 -9 -19 0 -7 -6 -21
-14 -31 -13 -19 -15 -18 -29 15 l-15 35 -1 -32 c-2 -60 -21 -34 -21 28 0 72
16 76 38 9z m247 7 c7 10 17 15 21 11 4 -4 1 -14 -6 -23 -10 -13 -10 -19 4
-33 9 -10 16 -22 16 -25 0 -14 -23 -7 -36 11 -13 16 -13 16 -14 0 0 -10 -4
-18 -10 -18 -12 0 -14 103 -2 114 4 4 8 -6 10 -24 3 -29 4 -30 17 -13z m145
-17 c0 -33 -4 -60 -10 -60 -6 0 -10 27 -10 60 0 33 4 60 10 60 6 0 10 -27 10
-60z m320 0 c0 -33 -4 -60 -10 -60 -6 0 -10 27 -10 60 0 33 4 60 10 60 6 0 10
-27 10 -60z m-522 -13 c-3 -36 -6 -41 -31 -44 -37 -5 -57 12 -57 47 0 32 10
38 58 37 32 0 33 -1 30 -40z m160 24 c3 -10 -2 -11 -19 -6 l-24 6 24 -19 c16
-13 22 -25 18 -36 -8 -20 -48 -18 -55 3 -3 9 2 11 17 6 12 -3 21 -2 21 4 0 5
-9 13 -20 16 -20 6 -26 25 -13 39 11 11 46 2 51 -13z m194 5 c11 -16 9 -76 -2
-76 -5 0 -10 16 -10 36 0 28 -3 35 -17 32 -13 -3 -18 -13 -17 -36 1 -22 -3
-32 -13 -32 -10 0 -14 9 -11 32 2 25 -1 34 -14 36 -15 3 -18 -4 -18 -32 0 -20
-4 -36 -10 -36 -5 0 -10 20 -10 45 l0 44 58 -1 c31 -1 60 -6 64 -12z m118 -31
c0 -38 -2 -41 -29 -43 -30 -2 -61 19 -61 43 0 24 31 45 61 43 27 -2 29 -5 29
-43z"/>
<path d="M4085 588 c-3 -7 -11 -35 -19 -61 l-14 -48 36 3 c34 3 36 6 49 53 7
28 13 53 13 58 0 12 -60 8 -65 -5z"/>
<path d="M1604 592 c-9 -6 -34 -85 -34 -106 0 -3 15 -6 34 -6 31 0 34 3 45 44
16 65 14 76 -11 76 -13 0 -28 -4 -34 -8z"/>
<path d="M2037 593 c-19 -18 -6 -38 24 -37 30 1 53 20 43 36 -6 10 -58 11 -67
1z"/>
<path d="M3496 545 c-20 -68 -21 -65 18 -65 32 0 34 2 42 48 11 67 12 66 -18
69 -24 2 -28 -3 -42 -52z"/>
<path d="M3630 285 c0 -22 4 -26 23 -23 14 2 22 10 22 23 0 13 -8 21 -22 23
-19 3 -23 -1 -23 -23z"/>
<path d="M4104 295 c-8 -19 3 -35 26 -35 19 0 30 17 23 38 -6 17 -42 15 -49
-3z"/>
<path d="M1066 546 c-20 -70 -21 -66 17 -66 32 0 34 2 45 51 16 69 16 69 -17
69 -27 0 -31 -5 -45 -54z"/>
<path d="M2420 383 c-27 -10 -60 -56 -60 -84 0 -43 45 -89 87 -89 19 0 41 7
50 15 10 10 19 12 27 6 6 -5 29 -8 50 -6 22 2 48 -1 58 -6 10 -5 18 -6 18 -1
0 5 7 9 15 9 8 0 15 -4 15 -9 0 -4 5 -8 11 -8 5 0 8 3 5 8 -5 8 103 6 169 -3
37 -6 42 -4 64 29 27 41 23 81 -9 91 -11 4 -18 10 -16 14 3 4 -36 7 -87 6 -60
-1 -96 3 -104 11 -16 15 -83 16 -89 0 -6 -15 -109 -6 -141 12 -23 13 -38 14
-63 5z m70 -43 c24 -24 25 -48 4 -78 -31 -44 -104 -16 -104 40 0 24 35 58 60
58 11 0 29 -9 40 -20z m164 -41 c-1 -29 -6 -55 -10 -56 -5 -2 -8 21 -8 50 2
66 2 69 12 63 4 -2 7 -28 6 -57z m46 1 c0 -33 -4 -60 -10 -60 -6 0 -10 27 -10
60 0 33 4 60 10 60 6 0 10 -27 10 -60z m-102 18 c14 -14 16 -78 2 -78 -5 0
-10 16 -10 36 0 28 -3 35 -17 32 -12 -2 -19 -14 -21 -36 -5 -48 -22 -39 -22
13 0 43 1 45 28 45 15 0 33 -5 40 -12z m197 0 c11 -32 9 -71 -3 -76 -9 -3 -13
3 -12 19 4 40 1 49 -15 49 -10 0 -15 -11 -15 -35 0 -19 -4 -35 -10 -35 -5 0
-10 20 -10 45 0 43 1 45 30 45 17 0 33 -6 35 -12z m115 -7 c15 -30 -4 -71 -33
-71 -13 0 -28 5 -35 12 -16 16 -15 65 1 71 27 12 57 6 67 -12z"/>
<path d="M2426 327 c-36 -26 4 -84 42 -61 24 16 27 45 6 61 -10 7 -21 13 -24
13 -3 0 -14 -6 -24 -13z"/>
<path d="M2850 300 c0 -5 9 -10 20 -10 11 0 20 5 20 10 0 6 -9 10 -20 10 -11
0 -20 -4 -20 -10z"/>
<path d="M2850 270 c0 -5 9 -10 19 -10 11 0 23 5 26 10 4 6 -5 10 -19 10 -14
0 -26 -4 -26 -10z"/>
<path d="M1896 359 c-22 -26 -25 -94 -5 -114 16 -17 25 -19 112 -30 39 -4 63
-3 72 5 10 8 19 8 33 1 11 -6 22 -8 25 -5 3 3 15 1 26 -6 12 -6 27 -8 33 -4 7
4 33 7 58 5 55 -3 77 16 81 72 4 47 -13 63 -80 73 -25 4 -51 10 -56 15 -10 8
-77 -10 -91 -24 -4 -4 -13 -2 -21 4 -7 6 -13 8 -13 4 0 -4 -6 -2 -14 4 -11 9
-16 9 -21 0 -6 -8 -10 -8 -15 2 -5 7 -30 14 -57 15 -40 3 -53 -1 -67 -17z m34
-32 c1 -21 2 -21 21 6 11 15 29 27 40 27 16 0 14 -5 -13 -29 l-32 -28 23 -29
c27 -35 10 -46 -19 -12 l-19 23 -1 -22 c0 -13 -4 -23 -10 -23 -6 0 -10 27 -10
61 0 37 4 58 10 54 6 -3 10 -16 10 -28z m260 -31 c0 -57 -8 -84 -21 -72 -8 8
3 136 12 136 5 0 9 -29 9 -64z m-110 19 c18 -21 -1 -69 -29 -73 -42 -7 -69 46
-39 76 17 17 53 15 68 -3z m70 5 c0 -5 -4 -10 -10 -10 -5 0 -10 -16 -10 -35 0
-19 -4 -35 -10 -35 -5 0 -10 20 -10 45 0 38 3 45 20 45 11 0 20 -4 20 -10z
m150 -27 c0 -18 1 -36 3 -40 1 -4 -15 -9 -35 -11 -32 -3 -40 0 -49 21 -18 39
3 68 47 65 31 -2 34 -5 34 -35z"/>
<path d="M2020 300 c0 -5 11 -10 25 -10 14 0 25 5 25 10 0 6 -11 10 -25 10
-14 0 -25 -4 -25 -10z"/>
<path d="M2020 270 c0 -5 9 -10 19 -10 11 0 23 5 26 10 4 6 -5 10 -19 10 -14
0 -26 -4 -26 -10z"/>
<path d="M2233 294 c-3 -8 -1 -20 5 -26 16 -16 42 -2 42 22 0 24 -38 28 -47 4z"/>
<path d="M2994 369 c-3 -5 -2 -9 1 -9 3 0 0 -9 -7 -19 -22 -31 -11 -96 19
-112 18 -10 26 -10 31 -2 5 7 13 9 21 3 8 -4 20 -6 28 -3 7 3 19 0 27 -6 9 -8
42 -10 97 -6 46 3 102 5 123 5 22 0 45 5 53 11 19 16 17 113 -3 133 -19 19
-68 21 -86 3 -16 -15 -179 -18 -190 -3 -8 12 -106 17 -114 5z m36 -40 c0 -12
7 -19 20 -19 15 0 20 7 20 25 0 14 5 25 10 25 6 0 10 -27 10 -60 0 -33 -4 -60
-10 -60 -5 0 -10 11 -10 25 0 18 -5 25 -20 25 -15 0 -20 -7 -20 -25 0 -14 -4
-25 -10 -25 -6 0 -10 27 -10 61 0 37 4 58 10 54 6 -3 10 -15 10 -26z m300 -29
c0 -33 -4 -60 -10 -60 -6 0 -10 27 -10 60 0 33 4 60 10 60 6 0 10 -27 10 -60z
m42 -4 c-2 -31 -8 -56 -13 -56 -10 0 -13 103 -3 113 14 14 19 -3 16 -57z
m-172 -11 c0 -40 -1 -41 -35 -43 -29 -2 -37 2 -46 21 -18 39 3 68 47 65 33 -2
34 -3 34 -43z m80 30 c0 -9 -6 -12 -17 -8 -14 5 -13 1 4 -16 13 -12 20 -28 16
-37 -7 -18 -45 -15 -51 5 -3 10 0 12 12 8 21 -8 21 2 -1 18 -9 7 -14 19 -10
29 8 20 47 21 47 1z"/>
<path d="M3134 295 c-8 -19 3 -35 26 -35 19 0 30 17 23 38 -6 17 -42 15 -49
-3z"/>
</g>
</svg>
