 <svg  version="1.0" xmlns="http://www.w3.org/2000/svg"  width="900.000000pt" height="204.000000pt" viewBox="0 0 900.000000 204.000000"  preserveAspectRatio="xMidYMid meet">  <g transform="translate(0.000000,204.000000) scale(0.100000,-0.100000)" fill="#ffffff" stroke="none"> <path d="M745 1753 c-33 -2 -67 -10 -75 -17 -8 -7 -35 -21 -60 -30 -97 -38 -257 -224 -243 -283 6 -28 -6 -51 -18 -32 -13 21 -17 8 -25 -63 -8 -77 1 -127 19 -109 17 17 27 13 27 -9 0 -11 7 -23 15 -26 8 -4 15 -12 15 -20 0 -7 12 -16 28 -19 71 -15 84 -42 76 -157 -5 -66 -4 -91 7 -104 15 -19 36 -53 44 -74 36 -90 163 -242 257 -306 24 -16 48 -34 53 -40 23 -24 119 -78 158 -87 59 -14 285 -17 327 -4 19 6 46 21 61 34 14 13 30 23 35 23 11 0 104 111 123 147 16 31 34 320 21 343 -6 10 -10 29 -10 42 0 13 -7 34 -14 48 -8 14 -24 45 -35 70 -11 25 -25 52 -31 60 -5 8 -19 32 -30 53 -11 20 -27 37 -36 37 -8 0 -18 8 -21 18 -9 22 -46 76 -56 80 -4 2 -26 24 -49 48 -22 24 -50 46 -62 50 -12 3 -34 16 -51 28 -46 34 -86 47 -152 49 l-61 1 -13 53 c-13 57 -6 80 17 49 14 -20 14 -20 14 0 0 37 -12 62 -31 67 -11 3 -24 19 -30 36 -11 32 -57 53 -109 49 -14 -1 -52 -3 -85 -5z m189 -99 c4 -16 1 -35 -8 -49 -13 -20 -23 -23 -89 -22 -63 0 -83 -4 -139 -31 -37 -19 -84 -52 -109 -80 -39 -41 -56 -67 -100 -154 -5 -10 -9 -36 -9 -57 0 -44 -29 -81 -62 -81 -16 0 -18 9 -18 77 0 68 4 84 36 149 45 89 163 214 203 214 5 0 11 4 13 9 7 18 135 50 204 50 69 1 72 0 78 -25z m-58 -155 c29 -32 8 -52 -66 -63 -56 -8 -67 -14 -109 -56 -29 -30 -52 -65 -64 -98 -17 -51 -28 -59 -61 -46 -17 7 -22 59 -7 69 5 3 13 19 16 36 10 43 109 140 165 161 62 23 103 22 126 -3z m237 -91 c82 -29 283 -247 348 -377 52 -105 64 -150 64 -251 0 -72 -4 -105 -19 -135 -30 -65 -94 -142 -145 -174 -46 -30 -51 -31 -164 -31 -111 0 -118 1 -179 32 -35 18 -68 38 -74 43 -6 6 -22 17 -35 25 -105 69 -237 220 -308 355 -25 48 -28 140 -5 200 8 22 18 49 21 60 10 33 89 130 140 172 62 52 84 63 163 83 72 19 136 18 193 -2z"/> <path d="M928 1311 c-26 -4 -49 -9 -52 -12 -3 -3 12 -28 33 -57 22 -28 41 -57 44 -64 3 -10 14 -7 43 10 42 24 108 56 137 66 23 7 21 18 -8 39 -28 20 -125 29 -197 18z"/> <path d="M765 1208 c-54 -63 -76 -114 -82 -194 -5 -64 -3 -75 21 -117 41 -70 52 -75 60 -26 9 59 61 157 107 204 21 23 39 44 39 49 0 15 -85 125 -97 125 -6 1 -28 -18 -48 -41z"/> <path d="M1162 1200 c-7 -11 -16 -20 -22 -20 -15 0 -117 -64 -165 -104 -52 -44 -132 -160 -141 -206 -4 -17 -17 -38 -30 -47 -13 -8 -24 -21 -24 -28 0 -15 103 -111 175 -165 28 -20 80 -51 116 -68 55 -27 77 -32 136 -32 61 0 75 4 109 29 45 33 62 51 94 104 18 31 22 52 22 117 0 78 -3 88 -57 206 -20 42 -89 139 -155 217 -19 23 -42 22 -58 -3z m122 -245 c61 -133 68 -175 39 -236 -39 -83 -107 -106 -201 -68 -80 33 -93 40 -140 80 -66 57 -81 125 -37 169 14 14 42 47 61 73 35 47 90 81 154 97 33 9 93 -47 124 -115z"/> <path d="M7759 1522 c-30 -14 -111 -87 -128 -117 -10 -16 -22 -48 -25 -70 -7 -42 -54 -173 -67 -189 -16 -18 -69 -14 -83 6 -7 10 -19 18 -27 16 -9 -2 -15 11 -19 39 -7 44 -24 73 -45 73 -7 0 -15 7 -19 15 -3 8 -11 15 -18 15 -7 0 -26 7 -42 15 -33 18 -129 27 -282 28 -87 0 -104 -2 -130 -21 -32 -24 -96 -25 -169 -2 -22 7 -55 13 -73 15 -18 1 -35 5 -39 9 -10 10 -111 7 -118 -4 -3 -5 -19 -10 -35 -10 -16 0 -32 -4 -35 -10 -3 -5 -18 -10 -33 -10 -58 -1 -144 -76 -184 -160 -21 -44 -40 -60 -72 -60 -17 0 -36 4 -42 8 -13 8 -29 69 -25 96 5 33 -9 86 -23 86 -8 0 -19 7 -26 15 -7 8 -21 15 -31 15 -10 0 -27 9 -37 20 -17 18 -33 20 -211 22 l-192 2 -25 -27 c-25 -27 -48 -34 -58 -18 -3 5 -15 7 -26 4 -14 -4 -22 1 -29 19 -13 35 -59 62 -109 65 -24 1 -59 12 -78 24 -42 26 -88 22 -133 -12 -16 -12 -36 -19 -45 -16 -8 3 -27 -4 -43 -16 -26 -21 -38 -22 -218 -23 -270 -2 -254 0 -248 -24 4 -14 0 -20 -10 -20 -9 0 -18 4 -21 8 -3 5 -26 9 -52 10 -26 0 -50 6 -54 12 -6 9 -62 14 -198 16 -212 4 -259 14 -280 57 -7 15 -25 35 -40 44 -15 10 -31 23 -35 30 -5 9 -32 13 -75 13 -77 0 -90 -6 -173 -88 l-57 -54 -233 -5 c-129 -3 -263 -5 -299 -4 -209 6 -393 2 -399 -8 -4 -7 -14 -9 -23 -6 -8 3 -21 -1 -28 -10 -15 -19 -38 -19 -59 -1 -9 7 -43 18 -76 24 -71 13 -345 8 -394 -7 -19 -6 -37 -8 -42 -6 -4 3 -32 -19 -62 -48 -43 -41 -57 -62 -62 -92 -4 -22 -12 -56 -18 -75 -6 -19 -10 -45 -9 -57 1 -12 -3 -25 -8 -28 -6 -3 -11 -32 -11 -63 -1 -31 -4 -47 -6 -34 -8 41 -20 23 -32 -47 -21 -131 -9 -237 25 -224 8 3 26 -3 42 -13 15 -11 36 -22 47 -25 13 -3 19 -12 17 -25 -3 -15 -1 -17 9 -6 7 6 22 12 32 12 41 0 156 42 162 59 11 37 67 65 135 69 40 2 69 9 76 18 8 10 39 15 107 16 79 3 98 0 114 -15 11 -9 29 -17 42 -17 32 0 90 27 97 45 3 8 17 15 30 15 25 0 94 79 94 108 0 21 27 -2 46 -41 9 -16 21 -26 28 -24 7 3 34 -15 60 -39 26 -24 56 -44 66 -44 10 0 22 -5 25 -10 9 -15 58 -12 83 6 21 14 25 14 35 1 7 -8 21 -17 32 -19 11 -2 24 -13 31 -25 20 -42 75 -69 165 -82 46 -7 95 -15 109 -20 14 -4 66 -3 117 3 108 11 118 6 125 -57 7 -60 29 -101 56 -105 12 -2 22 -10 22 -17 0 -28 45 -44 140 -51 52 -4 118 -6 145 -6 139 3 232 2 355 -2 122 -5 139 -3 168 14 18 11 32 26 32 35 0 8 9 19 19 25 35 18 68 11 107 -25 21 -19 39 -35 40 -35 1 0 25 -4 53 -10 37 -7 66 -6 99 2 27 6 154 12 297 14 138 2 259 4 270 4 26 2 96 -8 161 -22 79 -16 116 -5 175 54 l51 51 39 -13 c21 -7 41 -11 44 -8 8 8 9 151 1 196 l-8 42 35 0 c38 0 54 -22 42 -59 -7 -24 15 -42 43 -34 17 4 22 13 22 38 0 37 23 67 44 59 11 -4 13 -30 11 -122 -1 -64 -3 -121 -4 -125 0 -5 -11 -7 -23 -5 -20 3 -23 9 -22 46 1 36 -3 43 -22 48 -39 10 -49 0 -49 -47 0 -42 -1 -44 -32 -47 -27 -3 -33 -8 -33 -26 0 -26 32 -38 68 -25 11 4 37 3 58 -2 20 -6 45 -8 56 -6 11 3 34 -1 53 -9 40 -16 267 -13 415 6 87 11 99 16 142 51 26 22 50 39 54 39 5 0 27 -18 49 -40 49 -48 99 -60 250 -61 410 -1 558 0 583 6 86 19 376 12 501 -11 19 -4 72 -1 118 6 73 12 88 18 122 49 41 38 61 88 61 153 0 45 -13 81 -47 131 l-26 37 27 38 c15 20 36 49 47 63 24 30 57 140 99 331 35 158 39 220 13 216 -11 -2 -19 7 -24 26 -18 65 -72 96 -167 96 -58 0 -75 -4 -103 -25 -19 -13 -45 -32 -59 -42 -14 -9 -32 -24 -40 -34 -20 -22 -73 -39 -123 -39 -34 0 -50 9 -120 67 l-81 68 -70 2 c-39 2 -78 -1 -87 -5z m-3894 -113 c4 -11 -3 -36 -17 -61 l-23 -41 -98 -1 c-62 -1 -102 3 -108 10 -9 11 11 75 31 99 5 6 54 11 109 12 91 1 101 -1 106 -18z m4081 6 c7 -18 -2 -74 -15 -94 -7 -12 -32 -15 -105 -14 -53 1 -100 4 -105 7 -4 3 -3 27 4 53 l12 48 89 6 c49 3 95 6 102 7 7 1 15 -5 18 -13z m608 -15 c-1 -14 -11 -59 -23 -100 -13 -41 -29 -100 -36 -130 -7 -30 -20 -82 -29 -115 -8 -33 -20 -87 -27 -120 -14 -69 -26 -88 -47 -80 -9 3 -113 6 -233 5 l-218 0 -21 28 c-24 30 -23 77 5 162 8 25 17 61 20 81 8 56 52 115 95 128 49 15 195 14 237 -1 18 -6 35 -9 39 -5 4 3 9 38 12 77 2 38 10 74 16 79 7 6 48 12 91 14 121 5 120 5 119 -23z m-3277 -59 c-15 -71 -20 -66 66 -62 l77 3 0 -29 c0 -16 -7 -39 -16 -52 -15 -21 -23 -22 -86 -19 -81 3 -93 -6 -104 -81 -4 -25 -13 -63 -20 -85 -25 -69 -24 -70 65 -63 43 2 84 1 91 -3 15 -9 6 -73 -13 -88 -8 -7 -70 -9 -169 -7 -148 3 -158 5 -180 27 -18 18 -23 32 -21 72 1 26 7 53 12 60 6 7 13 32 17 56 4 25 14 55 22 67 22 35 10 53 -33 46 -31 -5 -37 -3 -42 16 -7 26 -20 27 -28 1 -6 -19 -15 -20 -125 -20 -111 0 -120 -1 -134 -22 -9 -12 -16 -34 -16 -49 0 -14 -6 -39 -14 -55 -8 -16 -16 -45 -18 -64 l-3 -35 125 0 125 0 3 -26 c2 -14 -2 -38 -7 -53 l-11 -27 -202 5 c-183 5 -204 7 -222 25 -23 24 -25 95 -3 150 8 20 22 67 30 104 32 133 62 147 313 147 164 0 173 -1 179 -20 8 -26 22 -26 30 1 6 18 12 20 42 14 40 -7 53 4 53 47 0 15 6 31 14 35 8 4 58 9 111 9 l97 2 -5 -27z m720 -103 c-3 -22 -8 -43 -12 -46 -4 -4 -78 -5 -166 -4 -141 3 -160 2 -165 -13 -13 -34 15 -42 121 -35 146 11 175 -6 160 -88 -12 -68 -38 -127 -70 -159 l-33 -32 -223 -3 -224 -3 3 40 c2 22 6 43 10 47 4 3 70 3 147 -1 163 -8 177 -6 173 23 -3 20 -8 21 -118 21 -157 0 -193 22 -165 101 8 21 14 48 15 59 0 33 49 96 88 113 29 13 80 18 237 22 110 3 206 3 214 1 9 -3 12 -15 8 -43z m772 38 c14 -16 4 -71 -16 -88 -10 -8 -53 -12 -125 -13 -103 0 -111 -1 -129 -24 -10 -13 -19 -35 -19 -50 0 -15 -7 -49 -16 -74 -26 -76 -20 -80 94 -72 126 9 145 4 137 -38 -15 -73 4 -67 -216 -67 l-200 0 -24 26 c-17 18 -25 39 -25 63 0 40 27 167 41 193 5 10 9 26 9 37 0 25 35 68 73 89 25 13 67 18 192 22 88 3 172 7 186 8 15 1 32 -4 38 -12z m-4619 -11 c10 -12 15 -12 35 1 37 24 226 15 263 -13 33 -24 41 -86 18 -132 -9 -16 -16 -43 -16 -58 0 -15 -7 -50 -16 -78 -9 -27 -18 -55 -20 -61 -1 -7 -19 -24 -38 -39 -35 -27 -40 -28 -159 -26 -72 0 -123 5 -125 11 -2 5 -9 10 -16 10 -9 0 -15 -21 -19 -62 -3 -35 -10 -75 -16 -90 l-11 -28 -105 0 c-120 0 -132 8 -100 66 17 32 21 46 48 174 8 36 19 81 24 100 6 19 16 51 22 70 6 20 14 58 17 85 11 84 13 85 113 85 66 0 92 -4 101 -15z m598 -5 l13 -21 28 21 c23 16 45 20 101 20 81 0 80 3 47 -85 l-15 -40 -82 -5 c-70 -5 -85 -9 -101 -29 -11 -13 -19 -34 -19 -48 0 -13 -4 -33 -10 -43 -5 -10 -14 -48 -19 -85 -5 -36 -15 -72 -20 -79 -8 -9 -43 -14 -111 -15 -82 -1 -102 2 -106 14 -4 8 -2 21 3 28 21 26 83 261 83 313 0 67 10 74 108 74 77 0 89 -2 100 -20z m748 -1 c28 -17 34 -27 34 -55 0 -19 -7 -51 -15 -71 -8 -19 -15 -44 -15 -55 0 -47 -43 -159 -71 -186 l-29 -27 -213 -5 c-116 -3 -222 -2 -233 2 -44 14 -48 106 -8 195 8 17 14 39 14 49 0 22 29 103 44 122 5 7 26 22 45 32 32 17 60 19 225 20 174 0 191 -2 222 -21z m257 3 c63 4 67 -6 39 -101 -27 -90 -43 -157 -52 -211 -11 -68 -31 -141 -49 -178 -32 -66 -35 -67 -232 -70 l-179 -3 0 39 c0 56 14 63 114 61 48 -2 90 2 95 7 12 13 31 71 41 124 4 25 13 59 18 75 18 51 33 118 42 178 11 77 30 98 76 85 20 -5 59 -8 87 -6z m603 2 c43 -16 44 -18 44 -61 0 -24 -7 -60 -15 -80 -8 -19 -15 -48 -15 -63 0 -48 -16 -52 -182 -49 -84 2 -159 0 -165 -4 -7 -5 -13 -19 -13 -32 l0 -25 163 -2 162 -3 3 -28 c2 -17 -4 -37 -14 -48 -16 -18 -29 -19 -253 -14 -197 5 -238 9 -253 22 -20 18 -23 52 -7 103 5 19 21 76 33 125 29 112 41 133 91 155 58 26 357 28 421 4z m2962 0 c28 -14 32 -20 32 -57 0 -79 -93 -320 -135 -349 -5 -4 -108 -8 -227 -8 -239 0 -242 1 -253 63 -12 64 41 255 88 317 33 43 60 48 268 49 159 1 202 -2 227 -15z m588 -17 c3 -10 1 -23 -4 -30 -6 -7 -20 -50 -31 -97 -12 -47 -28 -108 -36 -136 -8 -28 -15 -67 -15 -86 l0 -36 -97 -4 c-124 -5 -133 1 -104 67 12 26 21 59 21 73 0 14 6 48 14 76 8 28 19 71 24 96 23 99 18 95 126 95 84 1 97 -2 102 -18z m-1688 -98 c-2 -6 -8 -10 -13 -10 -5 0 -11 4 -13 10 -2 6 4 11 13 11 9 0 15 -5 13 -11z m402 -84 c0 -20 -5 -25 -24 -25 -30 0 -42 16 -26 35 21 25 50 19 50 -10z m-1805 -34 c7 -12 -12 -24 -25 -16 -11 7 -4 25 10 25 5 0 11 -4 15 -9z m1373 -23 c7 -7 8 -17 2 -29 -6 -10 -13 -42 -18 -71 l-7 -53 -110 0 c-104 0 -110 1 -109 20 3 41 32 128 45 136 21 13 183 11 197 -3z m1361 3 c14 -9 11 -52 -10 -117 l-10 -32 -92 -4 c-122 -7 -129 -3 -109 59 32 100 22 92 114 96 46 1 85 4 88 5 3 1 11 -2 19 -7z m-2599 -201 c0 -5 -7 -10 -15 -10 -8 0 -15 5 -15 10 0 6 7 10 15 10 8 0 15 -4 15 -10z m980 -5 c0 -8 -4 -15 -9 -15 -13 0 -22 16 -14 24 11 11 23 6 23 -9z m295 -5 c3 -5 19 -10 36 -10 35 0 37 -12 5 -30 -39 -20 -106 16 -79 43 10 10 31 8 38 -3z m1048 -14 c7 -18 -1 -26 -25 -26 -21 0 -23 11 -6 28 16 16 25 15 31 -2z m-4678 -7 c10 -14 1 -21 -19 -13 -9 3 -13 10 -10 15 7 12 21 11 29 -2z m3369 -34 c-1 -24 -8 -54 -15 -66 -11 -21 -13 -21 -24 -5 -8 11 -15 13 -20 7 -10 -17 -21 -13 -54 20 -36 35 -41 69 -12 69 11 0 22 4 25 8 3 5 27 8 54 9 l48 1 -2 -43z m900 36 c3 -5 -2 -12 -11 -15 -14 -6 -14 -8 3 -21 18 -13 18 -15 2 -31 -23 -23 -73 -9 -73 21 -1 11 -4 25 -8 31 -3 6 -4 14 0 18 10 9 81 7 87 -3z m-2146 -39 c6 -1 12 -6 12 -11 0 -13 -56 -71 -68 -71 -16 0 -42 41 -42 65 0 18 6 21 43 20 23 -1 48 -3 55 -3z m-750 -30 c16 -11 -3 -51 -42 -87 -33 -31 -33 -40 4 -82 35 -39 41 -83 11 -83 -12 0 -26 14 -38 37 -26 50 -41 52 -45 6 -3 -35 -6 -38 -34 -41 l-32 -3 2 123 c1 110 3 123 19 126 26 5 47 -16 47 -49 0 -40 10 -36 42 16 27 45 41 52 66 37z m407 -137 l0 -140 -28 -3 c-35 -4 -41 13 -28 80 7 35 8 74 1 118 -10 71 -2 93 34 88 20 -3 21 -9 21 -143z m593 105 c38 -36 42 -43 42 -90 0 -43 -5 -55 -36 -90 -33 -36 -41 -40 -84 -40 -55 0 -88 23 -121 85 l-21 38 22 44 c25 51 82 93 126 93 22 0 42 -11 72 -40z m427 -90 c0 -118 -1 -125 -20 -125 -19 0 -20 8 -23 114 -3 127 0 144 25 139 16 -3 18 -17 18 -128z m1256 118 c1 -14 1 -215 0 -235 -1 -14 -37 -18 -45 -5 -2 4 -6 58 -7 120 -3 91 -1 115 11 122 21 14 40 12 41 -2z m97 -121 l3 -128 -28 3 -28 3 -1 110 c-2 115 6 148 34 143 15 -3 17 -21 20 -131z m1047 3 c0 -118 -1 -125 -20 -125 -19 0 -20 8 -23 114 -3 127 0 144 25 139 16 -3 18 -17 18 -128z m637 113 c11 -14 14 -41 12 -120 -1 -56 -5 -107 -9 -112 -10 -17 -43 -13 -48 7 -11 41 -6 226 6 234 17 11 22 10 39 -9z m-3127 -118 c0 -113 -1 -120 -20 -120 -18 0 -21 9 -27 105 -7 125 -4 142 25 138 21 -3 22 -8 22 -123z m1688 83 c9 -24 19 -55 23 -70 4 -18 13 -28 24 -28 14 0 24 17 40 70 20 66 23 70 51 70 34 0 32 6 29 -130 -2 -111 -9 -132 -35 -110 -13 11 -16 25 -11 69 4 41 3 50 -4 34 -5 -13 -14 -23 -19 -23 -5 0 -12 -18 -16 -40 -6 -35 -10 -40 -35 -40 -24 0 -28 4 -34 40 -4 27 -11 40 -22 40 -12 0 -15 -9 -12 -36 3 -40 -17 -62 -46 -51 -14 6 -16 21 -12 119 3 62 5 116 5 121 1 4 14 7 30 7 24 0 31 -6 44 -42z m485 30 c7 -7 12 -25 12 -40 0 -30 14 -38 24 -13 3 8 12 15 20 15 25 0 26 -29 2 -57 -18 -21 -21 -33 -15 -50 5 -13 12 -23 17 -23 5 0 14 -12 21 -27 10 -21 9 -28 -1 -34 -20 -13 -28 -11 -48 13 l-18 23 -20 -25 c-14 -17 -24 -22 -30 -15 -8 8 -18 188 -13 233 1 15 33 16 49 0z m-3334 -67 c25 -26 27 -33 21 -77 -10 -64 -37 -94 -86 -94 -30 0 -43 7 -68 35 -42 48 -42 88 1 132 43 44 92 46 132 4z m142 14 c4 -8 0 -23 -7 -32 -8 -9 -16 -46 -19 -82 -4 -58 -8 -66 -25 -66 -18 0 -20 8 -23 84 -2 46 -1 90 2 98 7 18 65 17 72 -2z m305 5 c16 -9 19 -22 19 -91 0 -76 -1 -80 -26 -89 -14 -6 -46 -10 -72 -10 -65 0 -97 34 -97 100 0 69 32 100 103 100 29 0 62 -5 73 -10z m598 -11 c22 -24 35 -84 29 -139 -3 -30 -7 -35 -28 -35 -23 0 -25 4 -26 50 -1 68 -11 95 -34 95 -22 0 -28 -19 -32 -95 -3 -42 -6 -50 -23 -50 -18 0 -20 8 -23 83 -2 53 1 89 9 98 19 23 104 18 128 -7z m395 -3 c9 -14 19 -57 22 -95 6 -62 5 -71 -11 -77 -27 -11 -47 23 -40 67 7 42 -10 79 -37 79 -20 0 -27 -21 -30 -95 -3 -43 -6 -50 -25 -53 -22 -3 -23 -1 -23 85 0 56 4 93 12 101 7 7 35 12 64 12 44 0 54 -4 68 -24z m230 -19 c26 -32 28 -41 18 -57 -7 -11 -12 -27 -12 -36 0 -32 -42 -64 -86 -64 -58 0 -89 35 -89 100 0 69 32 102 94 98 37 -3 49 -9 75 -41z m566 34 c23 -6 24 -10 25 -89 1 -46 -2 -85 -6 -88 -4 -2 -35 -7 -68 -10 -55 -6 -63 -5 -85 17 -43 44 -43 108 1 158 18 22 79 27 133 12z m162 -8 c22 -20 24 -53 3 -53 -19 0 -20 -19 -1 -26 22 -9 26 -45 8 -76 -20 -35 -68 -39 -95 -7 -26 30 -18 55 18 51 l29 -3 -32 29 c-36 34 -38 43 -16 77 19 29 59 33 86 8z m828 1 c11 -11 16 -161 6 -171 -3 -4 -31 -8 -61 -11 -61 -5 -84 7 -112 62 -17 32 -6 73 31 114 18 20 29 22 74 19 29 -2 57 -8 62 -13z m316 8 c20 -14 25 -44 9 -62 -14 -15 -14 -18 0 -30 20 -16 19 -59 -2 -82 -23 -25 -80 -24 -88 2 -3 11 -11 20 -16 20 -5 0 -9 7 -9 15 0 18 50 21 68 3 9 -9 12 -9 12 0 0 7 -13 21 -30 30 -36 21 -46 56 -25 88 15 24 57 32 81 16z m282 -4 c9 -9 15 -9 24 0 7 7 28 12 48 12 29 0 41 -6 59 -30 18 -26 21 -41 19 -98 -3 -64 -4 -67 -28 -67 -24 0 -25 3 -30 70 -5 63 -7 70 -27 73 -18 3 -23 -2 -24 -20 -4 -121 -4 -123 -23 -126 -27 -6 -37 17 -31 68 7 56 -13 92 -42 74 -13 -8 -19 -28 -23 -75 -4 -56 -8 -64 -25 -64 -18 0 -20 8 -23 83 -2 53 1 89 9 98 14 17 100 19 117 2z m360 -1 c8 -6 12 -38 12 -92 0 -92 -2 -95 -83 -95 -50 0 -72 13 -91 51 -26 52 -17 93 28 132 22 19 110 22 134 4z"/> <path d="M8168 1178 c-9 -7 -18 -24 -21 -38 -2 -14 -12 -52 -22 -85 -28 -100 -29 -103 -8 -109 10 -3 40 -2 67 2 49 7 50 8 62 52 7 25 20 72 28 104 9 33 14 66 12 73 -7 17 -97 17 -118 1z"/> <path d="M2158 1176 c-8 -8 -20 -36 -27 -63 -6 -26 -17 -61 -23 -78 -5 -16 -13 -42 -15 -57 -5 -28 -5 -28 55 -28 69 0 78 8 88 70 4 25 13 58 21 73 8 16 13 43 11 60 -3 30 -5 32 -49 35 -31 2 -52 -2 -61 -12z"/> <path d="M3191 1171 c-12 -12 -21 -32 -21 -46 0 -14 -6 -41 -14 -59 -8 -19 -16 -51 -18 -73 l-3 -38 61 -3 c51 -2 63 0 69 15 15 38 47 159 48 188 2 29 1 30 -50 33 -42 2 -56 -1 -72 -17z"/> <path d="M4060 1156 c-12 -20 -19 -40 -15 -46 3 -5 35 -10 71 -10 60 0 65 2 76 26 18 40 0 58 -59 62 -49 3 -52 1 -73 -32z"/> <path d="M7000 1148 c-11 -18 -20 -43 -20 -56 0 -13 -7 -37 -16 -53 -8 -17 -14 -42 -12 -57 3 -25 7 -27 54 -30 61 -4 78 12 92 83 6 28 16 64 23 81 20 49 8 64 -51 64 -46 0 -52 -3 -70 -32z"/> <path d="M4845 636 c-28 -20 -24 -80 7 -106 30 -25 42 -25 78 2 55 41 31 118 -36 118 -17 0 -39 -6 -49 -14z"/> <path d="M4063 613 c-22 -8 -14 -23 12 -23 14 0 25 4 25 9 0 11 -21 19 -37 14z"/> <path d="M4050 530 c0 -14 7 -20 24 -20 15 0 26 7 29 20 4 17 0 20 -24 20 -22 0 -29 -5 -29 -20z"/> <path d="M4470 591 c-15 -28 -12 -46 8 -64 26 -23 39 -21 58 8 14 21 15 31 6 50 -14 31 -57 34 -72 6z"/> <path d="M5710 600 c0 -5 11 -10 25 -10 14 0 25 5 25 10 0 6 -11 10 -25 10 -14 0 -25 -4 -25 -10z"/> <path d="M5704 534 c3 -9 6 -18 6 -20 0 -14 41 -1 50 16 10 18 8 20 -26 20 -29 0 -35 -3 -30 -16z"/> <path d="M6274 585 c-15 -23 -15 -27 0 -50 9 -14 25 -25 36 -25 12 0 25 10 32 25 15 33 -3 75 -32 75 -11 0 -27 -11 -36 -25z"/> <path d="M7260 590 c-28 -53 23 -102 63 -61 17 17 19 25 11 48 -12 37 -57 44 -74 13z"/> <path d="M8222 598 c-25 -25 -6 -88 26 -88 25 0 42 20 42 50 0 29 -16 50 -40 50 -9 0 -21 -5 -28 -12z"/> </g> </svg> 