<?xml version="1.0" standalone="no"?>
<!DOCTYPE svg PUBLIC "-//W3C//DTD SVG 20010904//EN"
 "http://www.w3.org/TR/2001/REC-SVG-20010904/DTD/svg10.dtd">
<svg version="1.0" xmlns="http://www.w3.org/2000/svg"
 width="900.000000pt" height="171.000000pt" viewBox="0 0 900.000000 171.000000"
 preserveAspectRatio="xMidYMid meet">
<metadata>
Created by potrace 1.10, written by Peter Selinger 2001-2011
</metadata>
<g transform="translate(0.000000,171.000000) scale(0.100000,-0.100000)"
fill="#ffffff" stroke="none">
<path d="M985 1700 c9 -15 -40 -42 -67 -35 -16 4 -32 -1 -50 -14 -14 -12 -32
-21 -40 -21 -7 0 -45 -33 -85 -74 -65 -68 -72 -79 -78 -128 -4 -29 -14 -65
-21 -80 -8 -15 -14 -46 -14 -70 0 -62 -27 -257 -41 -298 -23 -67 -111 -156
-236 -237 -23 -16 -43 -33 -43 -40 0 -6 -9 -15 -20 -18 -56 -18 -150 -134
-181 -222 -20 -58 -25 -151 -10 -181 57 -117 67 -129 158 -198 38 -29 115 -48
189 -47 47 0 77 7 125 30 35 17 79 34 97 38 32 7 60 19 92 40 18 12 62 29 149
56 64 21 143 20 156 -1 3 -5 25 -14 48 -21 23 -6 77 -28 119 -50 43 -21 86
-39 96 -39 10 0 47 -11 82 -25 79 -31 208 -34 251 -7 62 39 138 110 165 152
26 42 28 52 28 145 -1 68 -6 111 -16 135 -25 57 -123 166 -183 204 -30 20 -71
52 -92 73 -21 21 -62 56 -91 78 -68 51 -110 125 -118 205 -1 14 -7 52 -13 85
-6 33 -15 98 -20 145 -8 82 -44 194 -79 248 -23 35 -127 112 -152 112 -35 0
-60 19 -60 45 0 20 -5 25 -26 25 -14 0 -23 -4 -19 -10z m80 -146 c124 -59 150
-132 185 -519 12 -126 25 -177 52 -197 13 -10 28 -22 33 -26 6 -4 75 -57 155
-117 80 -60 147 -111 150 -115 3 -3 18 -15 33 -27 16 -12 43 -41 60 -65 30
-40 32 -49 32 -123 0 -72 -3 -84 -30 -125 -17 -24 -51 -58 -75 -75 -40 -27
-53 -30 -121 -30 -51 0 -87 6 -112 17 -44 21 -86 39 -147 63 -25 10 -60 24
-77 32 -18 7 -47 20 -65 27 -18 8 -62 28 -98 45 l-64 31 -66 -31 c-36 -17 -78
-36 -95 -43 -16 -7 -46 -20 -65 -28 -19 -9 -71 -30 -115 -48 -44 -17 -95 -39
-114 -48 -23 -11 -60 -17 -110 -17 -65 0 -82 4 -116 26 -54 35 -90 84 -109
149 -15 50 -15 58 0 105 28 82 48 109 122 159 23 16 42 31 42 35 0 3 17 17 38
31 20 14 39 27 42 31 3 3 60 47 128 97 104 79 122 97 122 120 0 15 7 62 15
105 8 43 15 97 15 120 0 23 7 74 15 112 8 39 15 93 15 120 1 114 118 230 237
234 18 1 58 -11 88 -25z"/>
<path d="M933 1436 c-45 -20 -63 -63 -73 -176 -4 -54 -10 -103 -13 -107 -11
-18 -27 -167 -18 -176 5 -5 25 0 49 12 57 29 143 28 200 -1 34 -18 44 -20 51
-10 8 13 -1 78 -18 137 -5 17 -12 68 -15 115 -3 47 -12 105 -19 129 -20 70
-83 104 -144 77z"/>
<path d="M903 869 c-23 -11 -57 -34 -76 -52 -29 -27 -35 -41 -41 -92 -11 -103
23 -164 118 -215 57 -30 62 -31 100 -19 60 19 101 46 130 83 25 34 32 74 28
171 -2 46 -6 52 -44 80 -52 37 -115 64 -148 64 -14 -1 -44 -9 -67 -20z m127
-163 c7 -32 5 -41 -17 -66 -30 -36 -49 -38 -80 -8 -30 29 -29 59 5 95 49 53
76 47 92 -21z"/>
<path d="M580 629 c-30 -27 -101 -84 -157 -127 -109 -82 -124 -106 -108 -169
12 -51 43 -73 100 -73 28 0 55 4 60 9 17 15 241 105 287 115 15 4 32 15 38 26
9 16 6 22 -19 35 -16 8 -45 34 -64 57 -34 42 -46 76 -56 171 -2 17 -30 3 -81
-44z"/>
<path d="M1287 673 c-4 -3 -7 -28 -7 -55 0 -34 -7 -60 -25 -88 -29 -45 -74
-90 -92 -90 -7 0 -13 -9 -13 -20 0 -21 27 -40 59 -40 10 0 32 -6 48 -14 15 -8
48 -22 73 -31 53 -21 105 -43 142 -62 45 -23 108 -17 140 14 23 22 28 35 28
74 0 42 -4 50 -38 80 -63 56 -94 81 -126 103 -31 21 -59 44 -127 104 -37 32
-50 38 -62 25z"/>
<path d="M2445 1499 c-126 -51 -212 -164 -234 -307 -16 -101 -13 -776 4 -847
14 -61 34 -90 87 -127 31 -23 49 -28 94 -28 65 0 95 14 149 68 50 51 64 108
65 263 0 81 5 128 15 153 29 69 65 32 65 -67 0 -50 18 -118 34 -134 4 -5 14
-23 22 -41 25 -61 106 -153 167 -191 72 -44 146 -63 245 -62 50 0 101 5 112
11 37 20 149 28 189 14 20 -7 60 -13 89 -14 45 0 61 5 97 31 24 17 46 38 49
46 8 20 74 8 132 -24 113 -63 321 -85 435 -45 59 21 120 56 155 90 11 10 38
28 59 38 37 17 39 17 49 0 37 -62 78 -92 186 -132 43 -17 148 -18 187 -3 15 6
39 12 53 14 16 2 46 26 81 64 31 33 62 61 69 61 7 0 29 -13 49 -29 20 -15 71
-47 114 -71 75 -41 82 -43 187 -48 108 -5 108 -5 154 26 67 46 107 50 156 18
41 -27 129 -46 215 -46 121 0 252 81 331 202 22 34 26 37 51 27 15 -5 56 -39
91 -74 35 -36 68 -65 72 -65 5 0 21 -10 37 -23 85 -71 318 -85 487 -30 46 15
103 51 187 120 46 37 75 35 84 -9 16 -72 113 -138 203 -138 38 0 59 7 95 31
26 17 47 34 47 38 0 4 13 28 30 53 l30 45 -3 157 c-2 86 1 160 5 162 4 3 8 14
8 25 0 35 59 89 97 89 53 0 58 -20 59 -235 1 -203 4 -218 54 -287 43 -59 74
-76 146 -80 59 -2 63 -1 119 42 39 30 64 58 76 87 17 39 22 43 53 43 26 0 38
-6 46 -21 23 -42 85 -101 131 -124 52 -27 164 -36 209 -17 36 15 84 71 99 115
11 33 10 43 -4 75 -24 56 -46 95 -64 117 -10 11 -26 38 -37 60 -10 22 -34 60
-51 84 -18 24 -33 51 -33 60 0 10 -6 23 -12 29 -10 10 -10 17 0 32 6 11 12 25
12 32 0 7 27 44 60 82 81 94 103 140 89 189 -16 59 -79 114 -139 122 -27 4
-64 2 -82 -3 -18 -6 -52 -16 -75 -22 -28 -7 -56 -24 -80 -51 -28 -30 -44 -39
-63 -37 -21 3 -26 9 -32 48 -3 25 -7 82 -7 126 -1 97 -24 157 -80 213 -52 52
-141 67 -204 35 -40 -20 -97 -82 -97 -105 0 -10 -5 -19 -12 -21 -7 -3 -13 -30
-14 -73 -1 -47 -6 -72 -15 -77 -56 -29 -91 -39 -119 -33 -19 4 -30 3 -30 -4 0
-6 -11 -16 -25 -23 -25 -11 -73 1 -105 28 -10 8 -38 10 -88 7 -71 -6 -75 -7
-127 -55 -34 -31 -60 -65 -71 -93 -9 -25 -20 -45 -24 -45 -17 0 -90 54 -95 70
-3 9 -24 26 -48 38 -23 12 -58 31 -77 42 -19 11 -47 20 -61 20 -15 0 -32 7
-39 15 -10 12 -39 15 -146 15 -126 0 -135 -1 -170 -25 -20 -14 -45 -25 -54
-25 -9 0 -34 -13 -55 -30 -21 -16 -43 -30 -49 -30 -6 0 -17 -9 -23 -20 -12
-18 -72 -56 -77 -48 -1 2 -18 25 -37 53 -40 59 -68 84 -91 85 -9 0 -24 8 -34
17 -12 13 -33 18 -70 17 -48 0 -55 -3 -108 -54 -36 -34 -60 -66 -66 -89 -9
-33 -20 -251 -19 -363 0 -52 1 -52 -33 -39 l-24 9 2 186 c2 142 -1 188 -11
194 -7 4 -19 21 -28 38 -9 17 -33 45 -54 63 -21 17 -45 38 -54 46 -35 33 -147
3 -208 -56 -57 -55 -67 -100 -65 -289 2 -159 -6 -200 -41 -200 -17 0 -28 33
-20 59 3 11 1 22 -5 26 -7 4 -10 57 -8 158 3 173 3 172 -86 264 -50 53 -51 53
-112 53 -36 0 -68 -5 -76 -12 -23 -22 -82 -64 -99 -70 -9 -4 -35 5 -59 18 -23
13 -50 24 -61 24 -10 0 -31 20 -50 48 -54 79 -122 150 -159 164 -13 5 -53 6
-89 2 -54 -6 -70 -12 -102 -41 -21 -19 -44 -50 -51 -69 -6 -19 -15 -34 -19
-34 -5 0 -9 -21 -11 -47 l-3 -48 -39 1 c-38 2 -67 22 -79 57 -3 9 -7 9 -19 0
-11 -10 -36 -10 -108 -2 -176 20 -274 -6 -388 -103 -18 -15 -40 -28 -50 -28
-9 0 -47 29 -83 64 -63 61 -69 64 -120 67 -30 2 -64 -2 -76 -9 -12 -7 -30 -12
-40 -12 -11 0 -25 -6 -31 -12 -10 -10 -17 -10 -32 0 -11 6 -25 12 -31 12 -7 0
-17 7 -23 15 -9 12 -39 15 -155 16 -125 0 -146 -2 -165 -18 -31 -26 -63 -43
-84 -43 -10 0 -31 -13 -46 -29 -39 -40 -70 -47 -106 -21 -35 25 -32 39 20 95
56 61 74 96 71 135 -3 43 -28 99 -47 107 -8 3 -21 18 -29 33 -12 23 -23 28
-84 38 -105 18 -198 14 -256 -9z m241 -77 c5 -5 28 -14 51 -21 25 -7 44 -19
48 -30 5 -18 -22 -80 -58 -132 -17 -23 -18 -23 -46 -6 -39 23 -119 22 -148 -2
-17 -14 -23 -34 -29 -89 -5 -58 -4 -72 7 -73 8 -1 53 0 101 1 98 2 108 -5 108
-77 0 -69 -14 -77 -121 -74 l-94 2 3 -312 c3 -252 1 -313 -10 -320 -15 -10
-158 -12 -182 -3 -14 5 -16 56 -16 464 l0 458 24 54 c27 61 102 133 148 143
15 4 30 11 33 16 8 11 167 12 181 1z m5496 -9 c14 -16 15 -55 8 -328 -4 -171
-4 -314 1 -319 5 -6 22 6 41 29 18 21 87 94 153 162 66 68 122 128 125 132 6
10 175 22 195 14 38 -14 14 -52 -112 -177 -70 -69 -131 -126 -135 -126 -17 0
-6 -24 35 -78 24 -31 47 -64 50 -72 4 -8 16 -28 27 -45 11 -16 25 -40 31 -52
7 -13 15 -23 19 -23 4 0 10 -8 14 -17 3 -10 14 -30 23 -45 30 -45 78 -113 84
-118 14 -12 18 -44 8 -56 -12 -15 -195 -20 -214 -6 -10 6 -85 128 -85 137 0 2
-15 26 -33 53 -18 27 -46 75 -62 106 -16 31 -34 56 -40 56 -5 0 -36 -30 -69
-67 l-58 -67 6 -101 c9 -127 9 -127 -110 -123 l-87 3 0 562 c0 308 4 566 7
572 4 6 40 11 85 11 62 0 81 -4 93 -17z m-3440 -124 c18 -10 20 -19 17 -109
-2 -58 0 -103 6 -108 6 -4 53 -6 105 -3 114 7 130 -2 130 -74 0 -48 -29 -91
-55 -81 -20 7 -174 10 -182 3 -3 -4 -5 -100 -4 -214 l2 -208 25 -22 c30 -27
58 -29 109 -8 46 20 73 12 81 -23 3 -15 9 -35 15 -44 5 -10 9 -30 9 -45 -1
-34 -41 -55 -138 -74 -98 -19 -171 1 -231 61 -79 80 -81 93 -81 548 0 362 1
392 18 401 23 14 148 14 174 0z m-1423 -210 c23 -11 57 -39 75 -61 44 -51 58
-43 50 28 -6 48 -5 54 12 55 11 0 51 2 89 3 115 5 105 45 105 -413 0 -355 -2
-400 -16 -405 -23 -9 -167 -7 -182 3 -9 5 -12 24 -10 57 4 58 -18 71 -44 25
-40 -72 -177 -114 -295 -92 -38 7 -88 22 -113 34 -58 27 -131 100 -157 157
-51 112 -53 119 -53 225 0 104 2 111 49 215 21 46 120 145 168 167 85 39 250
40 322 2z m970 7 c16 -9 37 -16 46 -16 24 0 75 -39 75 -56 0 -25 -49 -122 -65
-128 -14 -5 -41 3 -75 23 -50 29 -97 41 -162 41 -60 0 -76 -4 -95 -22 -25 -23
-29 -54 -10 -78 20 -25 65 -50 89 -50 13 -1 34 -7 48 -15 14 -8 35 -14 47 -15
12 0 36 -8 55 -17 18 -9 47 -23 63 -31 78 -38 125 -115 125 -205 0 -31 -4 -58
-9 -61 -5 -3 -12 -18 -16 -33 -8 -34 -64 -86 -119 -112 -69 -32 -166 -43 -259
-30 -79 11 -110 21 -187 57 -48 23 -70 42 -70 60 0 22 37 97 58 115 16 14 21
13 60 -14 23 -16 48 -29 55 -29 7 0 22 -7 35 -15 31 -22 202 -26 227 -5 38 31
36 92 -5 117 -26 17 -130 53 -151 53 -10 0 -30 6 -46 14 -15 8 -46 23 -68 33
-77 35 -135 117 -135 191 0 117 87 218 210 243 60 13 245 2 279 -15z m1028 11
c9 -6 10 -73 6 -250 -3 -139 -1 -257 4 -277 13 -47 81 -100 130 -100 45 0 96
31 123 75 20 32 21 46 19 291 0 183 2 259 11 264 15 9 177 6 187 -4 5 -4 8
-129 8 -276 l0 -269 24 -23 c84 -80 164 -76 229 11 21 29 22 37 22 296 0 146
3 266 8 266 34 7 171 4 185 -3 18 -9 18 -24 13 -256 -7 -251 -18 -354 -42
-383 -8 -8 -14 -20 -14 -26 0 -14 -78 -85 -126 -116 -79 -49 -235 -55 -285
-11 -8 8 -19 14 -23 14 -9 0 -57 49 -76 79 l-16 24 -43 -52 c-24 -28 -48 -51
-54 -51 -6 0 -18 -6 -26 -14 -24 -21 -118 -33 -186 -23 -41 6 -76 20 -113 44
-58 39 -132 119 -132 144 0 8 -7 24 -15 35 -12 16 -14 69 -15 306 0 207 3 287
11 290 20 7 174 2 186 -5z m1681 -14 c20 -9 52 -23 71 -32 40 -19 151 -137
151 -160 0 -9 8 -28 18 -41 14 -21 17 -46 16 -155 -1 -114 -3 -136 -23 -175
-42 -84 -50 -95 -96 -136 -100 -89 -231 -124 -379 -103 -44 7 -90 18 -101 26
-11 7 -26 13 -33 13 -17 0 -86 53 -125 95 -15 16 -41 59 -58 94 -29 60 -31 73
-31 178 -1 81 4 124 15 151 8 20 18 44 21 52 35 91 179 195 291 211 73 11 220
1 263 -18z m596 18 c16 -1 17 -7 11 -71 -7 -67 -6 -70 14 -70 12 0 21 6 21 14
0 21 48 74 90 101 45 28 124 42 144 26 10 -8 13 -34 12 -92 -1 -88 -8 -99 -62
-99 -73 0 -162 -55 -192 -119 -14 -30 -18 -77 -22 -271 l-5 -235 -80 -3 c-44
-2 -90 0 -102 3 l-23 5 0 400 c0 354 2 400 16 408 9 5 48 7 87 6 40 -2 80 -3
91 -3z m-3194 -286 c0 -8 -4 -15 -9 -15 -13 0 -22 16 -14 24 11 11 23 6 23 -9z
m599 -6 l23 1 -5 -120 c-3 -66 -9 -125 -12 -130 -13 -21 -71 -11 -97 18 -41
43 -49 67 -45 132 6 78 35 115 82 105 16 -4 41 -7 54 -6z m-2319 -54 c0 -8 -7
-15 -15 -15 -16 0 -20 12 -8 23 11 12 23 8 23 -8z m1135 -141 c0 -10 -8 -20
-17 -22 -18 -3 -26 27 -11 42 12 11 28 0 28 -20z"/>
<path d="M3138 926 c-50 -15 -105 -63 -128 -112 -15 -31 -20 -61 -20 -131 0
-85 2 -92 32 -134 71 -99 179 -135 275 -92 46 21 113 81 113 103 0 8 7 24 15
34 21 28 19 139 -2 200 -39 109 -168 169 -285 132z m97 -127 c4 -6 13 -8 20
-5 20 7 65 -47 71 -86 4 -24 1 -39 -10 -51 -9 -8 -16 -23 -16 -32 0 -28 -18
-52 -50 -65 -26 -11 -33 -10 -49 4 -9 9 -26 16 -37 16 -14 0 -27 14 -41 43
-16 34 -19 52 -13 96 4 30 11 56 17 58 6 2 19 10 29 18 22 17 70 20 79 4z"/>
<path d="M6760 924 c-79 -24 -128 -82 -150 -176 -36 -156 74 -307 226 -308 29
0 58 6 70 15 10 8 27 15 36 15 29 0 91 86 110 151 17 61 17 70 -8 172 -11 46
-92 120 -147 135 -57 15 -78 14 -137 -4z m107 -125 c6 -6 21 -16 34 -23 13 -7
28 -30 37 -59 13 -41 13 -51 1 -73 -7 -15 -24 -30 -38 -35 -13 -5 -21 -12 -17
-16 12 -13 -18 -33 -49 -33 -34 0 -78 34 -110 84 -22 34 3 115 45 144 35 24
79 29 97 11z"/>
</g>
</svg>
