<?xml version="1.0" standalone="no"?>
<!DOCTYPE svg PUBLIC "-//W3C//DTD SVG 20010904//EN"
 "http://www.w3.org/TR/2001/REC-SVG-20010904/DTD/svg10.dtd">
<svg version="1.0" xmlns="http://www.w3.org/2000/svg"
 width="300.000000pt" height="57.000000pt" viewBox="0 0 300.000000 57.000000"
 preserveAspectRatio="xMidYMid meet">
<metadata>
Created by potrace 1.10, written by Peter Selinger 2001-2011
</metadata>
<g transform="translate(0.000000,57.000000) scale(0.100000,-0.100000)"
fill="#ffffff" stroke="none">
<path d="M285 535 c-43 -22 -53 -43 -67 -146 -12 -88 -13 -92 -47 -114 -68
-44 -131 -110 -131 -138 0 -40 17 -74 45 -93 27 -18 89 -21 109 -6 6 5 19 8
29 6 11 -1 16 0 13 4 -3 3 11 12 31 19 53 19 65 21 88 12 22 -8 57 -21 65 -24
3 -1 18 -7 33 -13 84 -35 157 3 157 81 0 36 -6 50 -34 78 -45 46 -86 80 -86
72 0 -3 -9 2 -19 11 -14 13 -23 43 -32 108 -11 82 -15 94 -46 124 -37 37 -62
41 -108 19z m90 -27 c22 -20 28 -37 40 -121 7 -54 15 -100 17 -101 29 -20 100
-76 126 -100 38 -36 44 -84 12 -116 -28 -28 -67 -25 -160 14 l-81 35 -82 -35
c-113 -47 -152 -44 -176 15 -18 41 -1 67 87 136 39 31 72 58 72 60 0 27 23
167 31 186 19 49 73 62 114 27z"/>
<path d="M306 474 c-9 -8 -16 -23 -16 -33 0 -10 -3 -38 -6 -62 l-6 -44 51 0
51 0 -6 55 c-6 54 -26 100 -44 100 -4 0 -16 -7 -24 -16z m38 -45 c9 -48 8 -56
-14 -62 -14 -4 -20 0 -20 13 0 31 12 80 20 80 4 0 10 -14 14 -31z"/>
<path d="M297 289 c-45 -27 -39 -96 11 -119 59 -27 114 76 60 114 -26 18 -46
20 -71 5z m63 -34 c28 -33 -24 -83 -55 -51 -16 15 -20 48 -8 59 12 12 50 7 63
-8z"/>
<path d="M163 187 c-54 -43 -70 -81 -38 -93 12 -5 128 29 144 43 3 2 -6 14
-18 27 -12 13 -23 33 -24 45 -1 11 -4 21 -7 21 -3 -1 -29 -20 -57 -43z m54
-23 c6 -16 -15 -37 -29 -28 -4 3 -8 0 -8 -5 0 -6 -12 -11 -27 -11 l-27 0 29
30 c32 33 53 38 62 14z"/>
<path d="M430 210 c0 -12 -11 -32 -25 -45 l-24 -25 32 -14 c107 -44 137 -45
136 -4 0 15 -18 37 -54 66 -30 23 -56 42 -59 42 -3 0 -6 -9 -6 -20z m50 -40
c11 -6 24 -19 30 -29 8 -16 6 -19 -13 -17 -12 2 -32 6 -44 10 -19 6 -21 11
-13 27 12 22 15 23 40 9z"/>
<path d="M813 490 c-13 -5 -32 -24 -43 -42 -18 -29 -20 -51 -20 -190 0 -169 5
-188 54 -188 44 0 60 32 59 124 -1 80 0 84 22 88 21 5 23 1 27 -56 3 -45 11
-71 31 -100 15 -21 27 -35 27 -31 0 4 11 0 25 -9 27 -18 81 -21 119 -6 16 6
27 6 31 0 12 -20 63 -10 83 15 12 15 23 21 27 15 9 -14 71 -39 104 -42 40 -3
99 21 120 48 l20 25 29 -32 c25 -28 37 -33 78 -35 48 -2 62 5 81 41 14 25 -10
59 -48 68 -22 6 -24 11 -23 54 2 46 3 48 32 48 17 0 28 3 26 7 -2 4 0 10 6 13
7 4 10 -19 9 -68 -2 -83 10 -107 69 -146 40 -27 99 -26 126 2 12 12 21 15 25
8 14 -22 84 -38 119 -26 18 6 29 14 26 18 -4 4 0 7 9 7 10 0 25 15 34 35 16
33 33 46 33 25 0 -20 74 -80 106 -86 60 -11 121 4 158 39 18 18 39 41 45 52
12 20 12 20 10 0 -3 -49 2 -73 19 -80 71 -28 99 -5 98 83 -1 34 3 62 7 62 5 0
6 4 3 9 -10 16 6 42 23 39 9 -1 21 1 27 5 9 5 12 -14 13 -66 2 -116 13 -147
55 -147 35 0 64 27 68 63 4 40 17 39 40 -4 10 -19 26 -40 35 -46 22 -17 71
-16 88 1 16 16 12 56 -7 68 -7 4 -9 8 -4 8 4 0 -4 16 -18 35 -15 19 -24 35
-21 35 4 0 -1 7 -9 16 -15 14 -13 20 24 61 45 51 46 55 25 73 -28 23 -87 14
-112 -17 -15 -19 -23 -23 -24 -13 0 10 -3 8 -9 -5 -6 -14 -9 2 -9 52 -1 80
-14 103 -60 103 -36 0 -52 -19 -58 -67 -3 -21 -7 -40 -8 -41 -2 -2 -39 -4 -82
-4 -42 1 -83 -4 -90 -10 -7 -6 -13 -26 -13 -44 0 -43 -12 -43 -35 0 -11 19
-21 34 -24 34 -3 -1 -19 4 -34 10 -16 7 -33 12 -38 12 -6 0 -7 4 -4 10 8 13
-1 13 -26 -1 -15 -8 -24 -7 -36 3 -13 10 -17 10 -20 1 -3 -7 -20 -20 -38 -29
-19 -9 -43 -30 -54 -47 l-21 -32 0 37 c0 43 -30 71 -70 63 -38 -7 -40 -14 -44
-145 -2 -40 -11 -60 -30 -60 -10 0 -14 23 -15 87 -1 48 -7 93 -13 100 -12 14
-84 18 -92 4 -3 -4 -6 -45 -7 -89 -1 -54 -6 -85 -15 -93 -25 -21 -34 2 -34 86
0 74 -2 86 -21 99 -12 8 -28 12 -35 9 -8 -3 -14 0 -14 6 0 7 -11 1 -23 -13
-18 -20 -26 -23 -36 -13 -6 6 -21 12 -33 12 -15 0 -24 9 -29 29 -5 16 -14 33
-21 37 -20 13 -64 10 -76 -4 -7 -7 -12 -59 -13 -118 l-1 -105 -28 24 -29 25
25 19 c49 39 21 87 -59 102 -76 14 -152 -31 -160 -94 -3 -27 -4 -24 -5 16 -2
65 -17 79 -77 71 -46 -7 -85 1 -66 12 5 4 -8 6 -30 6 -21 0 -39 -3 -39 -7 0
-5 -9 -8 -20 -8 -10 0 -31 -12 -45 -26 -25 -25 -27 -25 -40 -8 -19 25 -19 27
9 56 16 19 20 30 14 42 -5 9 -6 16 -3 16 3 0 0 6 -7 13 -14 16 -93 20 -125 7z
m114 -24 c4 -3 2 -16 -4 -28 -7 -16 -18 -22 -44 -22 -29 -1 -34 -5 -37 -28 -3
-24 1 -27 30 -30 25 -2 33 -8 33 -23 0 -15 -8 -21 -32 -23 l-33 -3 0 -105 0
-104 -35 0 -35 0 0 153 c0 163 7 192 50 215 23 12 95 11 107 -2z m1804 -101
l-2 -110 58 58 c47 46 65 57 91 57 18 0 32 -3 32 -7 0 -4 -20 -28 -45 -53
l-44 -45 49 -75 c27 -41 49 -78 50 -82 0 -5 -17 -8 -37 -8 -36 0 -40 4 -73 60
l-34 60 -23 -27 c-15 -18 -22 -39 -20 -58 2 -27 -1 -30 -30 -33 l-33 -3 0 191
0 191 31 -3 32 -3 -2 -110z m-1143 32 c3 -34 6 -36 40 -39 29 -2 37 -7 37 -23
0 -16 -8 -21 -37 -23 l-38 -3 0 -74 c0 -77 7 -89 49 -78 12 3 21 1 21 -5 0 -6
3 -17 6 -25 8 -21 -54 -41 -89 -28 -50 19 -57 44 -57 192 0 74 2 138 5 140 2
3 17 4 32 4 25 -1 28 -6 31 -38z m-461 -49 l23 -21 0 21 c0 18 6 22 35 22 l35
0 0 -135 0 -135 -35 0 c-30 0 -35 4 -35 23 -1 19 -2 20 -11 5 -14 -24 -72 -38
-112 -27 -147 40 -120 269 31 269 33 0 52 -6 69 -22z m334 5 c6 -6 8 -21 4
-33 -5 -17 -12 -20 -28 -15 -43 14 -95 17 -102 6 -11 -19 12 -37 61 -51 79
-22 107 -87 59 -135 -33 -33 -112 -37 -167 -9 -31 16 -32 18 -18 44 9 17 13
17 38 4 15 -7 44 -14 65 -14 33 0 38 3 35 21 -2 15 -18 27 -56 41 -84 31 -104
87 -49 139 19 18 31 20 84 17 35 -2 68 -9 74 -15z m319 -76 c0 -95 8 -117 41
-117 38 0 49 27 49 121 l0 89 35 0 35 0 0 -95 c0 -83 2 -96 19 -105 27 -14 37
-13 55 6 12 12 16 37 16 105 l0 89 35 0 35 0 0 -85 c0 -97 -15 -145 -54 -170
-35 -23 -92 -22 -119 3 -22 20 -22 20 -46 1 -14 -12 -39 -19 -63 -19 -32 0
-47 7 -74 34 l-34 34 0 101 0 101 35 0 35 0 0 -93z m606 50 c29 -32 34 -44 34
-88 0 -101 -56 -147 -173 -141 -15 1 -43 16 -64 35 -31 29 -37 41 -40 88 -5
64 9 94 57 127 30 20 44 23 94 20 53 -4 62 -8 92 -41z m152 18 c-3 -14 -4 -25
-2 -25 2 0 14 11 28 25 36 36 66 33 66 -5 0 -24 -4 -30 -20 -30 -12 0 -32 -11
-45 -25 -22 -22 -25 -32 -25 -105 l0 -80 -35 0 -35 0 0 135 0 135 36 0 c33 0
36 -2 32 -25z m-1201 -156 c35 -17 35 -18 8 -12 -16 3 -37 12 -45 19 -14 11
-18 10 -30 -6 -19 -27 -30 -25 -30 5 0 14 5 25 12 25 9 0 9 3 0 12 -27 27 -10
30 18 3 16 -15 46 -36 67 -46z"/>
<path d="M1043 310 c-50 -20 -60 -105 -17 -139 35 -28 69 -26 99 4 41 40 33
105 -16 130 -32 17 -35 17 -66 5z m65 -32 c19 -24 18 -62 -4 -86 -17 -19 -24
-21 -47 -13 -15 6 -28 16 -28 23 -6 59 -4 71 16 78 30 13 51 12 63 -2z"/>
<path d="M2250 307 c-92 -46 -31 -188 65 -151 19 8 45 55 45 83 0 24 -37 67
-65 75 -11 3 -31 0 -45 -7z m66 -31 c21 -22 18 -72 -7 -90 -23 -16 -66 -7 -61
13 1 6 -2 11 -8 11 -14 0 -12 48 3 65 16 19 55 19 73 1z"/>
</g>
</svg>
