<?xml version="1.0" standalone="no"?>
<!DOCTYPE svg PUBLIC "-//W3C//DTD SVG 20010904//EN"
 "http://www.w3.org/TR/2001/REC-SVG-20010904/DTD/svg10.dtd">
<svg version="1.0" xmlns="http://www.w3.org/2000/svg"
 width="300.000000pt" height="85.000000pt" viewBox="0 0 300.000000 85.000000"
 preserveAspectRatio="xMidYMid meet">
<metadata>
Created by potrace 1.10, written by Peter Selinger 2001-2011
</metadata>
<g transform="translate(0.000000,85.000000) scale(0.100000,-0.100000)"
fill="#ffffff" stroke="none">
<path d="M270 763 c0 -2 7 -17 15 -32 13 -26 20 -29 90 -36 42 -4 78 -5 80 -3
1 1 -39 19 -91 39 -52 20 -94 35 -94 32z"/>
<path d="M630 763 c1 -5 15 -25 33 -46 l32 -37 130 35 c72 19 144 39 160 44
21 6 -31 9 -162 10 -106 1 -193 -2 -193 -6z m185 -25 c4 -3 -22 -13 -57 -21
-57 -13 -64 -13 -76 2 -10 13 -10 16 2 21 21 7 123 6 131 -2z"/>
<path d="M558 713 c-28 -30 -71 -96 -112 -174 l-66 -126 64 -69 65 -69 67 66
66 67 19 112 c10 62 21 121 24 131 6 18 0 19 -77 19 -51 0 -78 4 -69 9 7 5 41
6 73 3 l60 -5 -27 42 c-15 22 -31 41 -34 41 -4 0 -27 -21 -53 -47z m70 -1 c2
-7 -7 -12 -23 -12 -24 0 -26 2 -15 15 14 17 31 16 38 -3z m-6 -61 c41 -1 40 6
18 -141 -13 -84 -14 -86 -70 -144 -65 -67 -65 -67 -129 6 l-42 47 42 78 c24
43 51 94 61 115 19 38 30 46 63 43 11 -1 36 -3 57 -4z"/>
<path d="M234 567 c71 -75 132 -137 135 -137 5 0 115 206 129 240 1 4 -75 10
-170 14 -95 4 -184 10 -198 13 -18 5 9 -30 104 -130z m224 91 c6 -1 12 -3 12
-5 0 -7 -33 -68 -39 -73 -3 -3 -19 -32 -34 -64 l-29 -60 -57 60 c-31 32 -77
81 -102 108 l-44 49 140 -7 c77 -3 146 -7 153 -8z"/>
<path d="M845 601 c-38 -16 -46 -39 -71 -188 -13 -81 -24 -151 -24 -155 0 -3
19 -5 43 -4 l42 2 15 97 c13 89 16 97 36 97 17 0 23 7 26 30 4 26 1 30 -18 30
-30 0 -22 28 9 32 17 2 22 10 22 33 0 26 -4 30 -30 32 -16 1 -39 -2 -50 -6z
m35 -28 c0 -5 -7 -17 -15 -27 -13 -17 -13 -22 0 -43 9 -13 12 -23 7 -23 -16 0
-40 -57 -47 -114 -9 -79 -14 -90 -31 -75 -8 6 -12 15 -9 19 2 4 12 58 21 121
12 89 20 118 36 132 21 18 38 22 38 10z"/>
<path d="M1605 588 c-4 -14 -46 -281 -48 -313 -2 -17 4 -20 38 -19 l40 1 27
154 c35 202 36 189 -12 189 -24 0 -42 -5 -45 -12z m49 -45 c-9 -100 -39 -253
-51 -257 -8 -3 -13 2 -13 14 0 22 27 212 35 248 8 32 32 28 29 -5z"/>
<path d="M1031 503 c-14 -9 -21 -11 -17 -5 5 9 -6 12 -36 12 l-43 0 -18 -112
c-23 -153 -24 -148 18 -144 20 2 38 6 42 9 3 4 12 43 19 88 13 84 22 99 62 99
15 0 22 6 22 19 0 11 3 26 6 35 8 22 -24 21 -55 -1z m-31 -23 c12 -8 12 -11
-2 -27 -10 -10 -22 -51 -29 -91 -8 -48 -16 -72 -26 -72 -10 0 -12 12 -7 58 4
31 11 59 16 60 4 2 6 8 2 13 -9 15 6 69 19 69 7 0 19 -4 27 -10z"/>
<path d="M1150 503 c-70 -36 -106 -171 -60 -221 28 -30 62 -36 129 -26 53 8
56 11 59 39 3 30 2 31 -38 27 -52 -5 -90 5 -90 23 0 12 15 15 74 15 80 0 86 4
86 72 0 68 -89 108 -160 71z m40 -18 c0 -2 -12 -16 -26 -30 -17 -17 -24 -33
-21 -47 3 -11 1 -31 -5 -44 -10 -20 -8 -28 12 -49 13 -14 30 -23 37 -21 7 3
13 1 13 -4 0 -13 -41 -13 -74 0 -21 8 -26 16 -26 42 1 59 18 113 45 136 24 20
45 29 45 17z m70 -10 c7 -9 15 -31 17 -50 3 -29 0 -35 -15 -35 -15 0 -18 6
-14 29 3 22 -2 33 -23 50 l-28 21 25 0 c14 0 31 -7 38 -15z m-32 -47 c3 -15
-4 -18 -32 -18 -38 0 -44 8 -24 28 17 17 52 11 56 -10z"/>
<path d="M1401 502 c-47 -23 -69 -57 -81 -121 -18 -96 21 -136 125 -127 60 5
85 21 85 55 0 13 -13 16 -62 16 -52 0 -63 3 -66 18 -3 15 5 17 71 17 l75 0 4
41 c9 98 -62 147 -151 101z m109 -27 c20 -24 18 -79 -3 -83 -14 -3 -17 1 -12
21 5 18 1 31 -14 46 -13 13 -16 21 -8 25 20 8 24 7 37 -9z m-102 -12 c-22 -26
-28 -49 -15 -62 8 -8 6 -16 -7 -30 -25 -27 -13 -56 32 -74 l37 -15 -36 -1
c-40 -1 -84 32 -75 56 3 8 6 32 6 52 0 27 8 46 25 65 27 29 58 38 33 9z m62
-17 c0 -2 3 -11 6 -20 5 -13 -1 -16 -30 -16 -38 0 -44 8 -24 28 11 11 48 17
48 8z"/>
<path d="M1747 513 c-18 -3 -31 -13 -38 -29 -14 -40 -12 -41 48 -40 47 1 58
-2 61 -16 3 -13 -3 -18 -21 -18 -83 0 -127 -31 -127 -89 0 -60 48 -89 102 -60
12 6 23 7 27 2 3 -5 22 -9 41 -8 l34 0 12 75 c18 111 17 144 -6 165 -20 18
-83 27 -133 18z m108 -37 c16 -11 17 -22 12 -82 -9 -88 -16 -114 -33 -114 -19
0 -28 20 -15 33 14 14 14 50 -1 65 -9 9 -7 13 5 18 20 7 22 45 5 62 -7 7 -27
12 -46 12 -19 0 -31 4 -27 10 9 15 78 12 100 -4z m-122 -132 c-5 -29 -2 -40
12 -50 18 -13 17 -14 -7 -14 -33 0 -52 23 -42 52 5 18 29 46 41 48 1 0 -1 -16
-4 -36z m77 10 c0 -18 -24 -44 -40 -44 -20 0 -28 29 -13 43 8 8 53 9 53 1z"/>
<path d="M2066 513 c-4 -4 -34 -6 -66 -5 -33 1 -60 1 -60 0 0 -2 -9 -57 -20
-122 -10 -66 -17 -122 -15 -126 2 -4 21 -6 42 -6 l38 2 14 92 c11 76 17 92 33
98 35 11 42 -8 29 -91 -15 -106 -16 -102 24 -100 20 1 38 5 42 8 6 7 32 160
33 195 0 42 -67 81 -94 55z m-66 -33 c12 -8 12 -11 -2 -27 -9 -10 -20 -45 -23
-79 -8 -68 -19 -94 -33 -79 -6 6 -4 42 4 90 20 113 22 116 54 95z m124 1 c11
-1 0 -138 -14 -175 -14 -39 -34 -34 -25 7 4 17 7 54 7 81 0 39 -4 54 -21 67
-11 9 -21 19 -21 22 0 4 34 3 74 -2z"/>
<path d="M2244 505 c-42 -22 -66 -67 -72 -140 -4 -59 -3 -65 22 -90 24 -24 33
-27 77 -23 58 6 55 4 63 45 l7 31 -39 -5 c-47 -6 -57 9 -42 71 10 47 25 58 66
51 29 -5 32 -3 37 27 2 18 3 35 1 37 -11 12 -93 10 -120 -4z m83 -29 c4 -3 -7
-6 -24 -6 -34 0 -45 -10 -65 -60 -18 -44 -6 -100 23 -107 29 -8 23 -23 -10
-23 -39 0 -56 24 -53 75 3 83 42 137 94 131 16 -2 32 -6 35 -10z"/>
<path d="M2441 503 c-54 -28 -74 -64 -79 -137 -4 -55 -1 -67 17 -85 28 -28 64
-35 130 -25 53 8 56 11 59 39 l3 30 -63 0 c-52 0 -63 3 -66 18 -3 15 5 17 71
17 l75 0 7 38 c7 42 -4 81 -29 101 -26 22 -87 24 -125 4z m34 -28 c-44 -31
-47 -37 -40 -71 3 -21 2 -34 -5 -34 -15 0 -12 -46 5 -60 8 -7 29 -14 45 -15
17 -1 34 -6 38 -10 8 -9 -103 0 -118 10 -5 3 -10 33 -10 65 0 53 3 62 34 94
18 20 42 36 52 36 18 -1 18 -1 -1 -15z m90 -45 c0 -19 -6 -35 -12 -37 -9 -3
-13 6 -13 25 0 16 -7 35 -15 42 -23 19 -7 33 18 17 15 -10 22 -25 22 -47z
m-47 -2 c3 -15 -4 -18 -32 -18 -38 0 -44 8 -24 28 17 17 52 11 56 -10z"/>
<path d="M2794 513 l-62 -4 -4 -39 c-2 -22 -3 -40 -1 -40 1 0 29 16 62 35 32
19 64 35 70 35 6 0 11 5 11 10 0 6 -3 9 -7 8 -5 -1 -36 -3 -69 -5z"/>
<path d="M2668 467 c-49 -44 -48 -41 -72 -207 -2 -9 74 -8 80 1 5 9 44 242 41
245 -1 2 -23 -16 -49 -39z m2 -106 c-7 -45 -17 -72 -27 -75 -14 -6 -15 2 -9
54 6 53 32 108 44 95 2 -2 -1 -35 -8 -74z"/>
<path d="M357 240 c-19 -77 -34 -140 -33 -140 1 0 40 38 87 84 l84 84 -51 56
-51 56 -36 -140z m67 -15 c-27 -25 -52 -45 -55 -45 -6 0 7 65 19 100 3 8 4 19
3 24 -1 5 4 13 11 17 8 5 23 -3 42 -22 l30 -30 -50 -44z"/>
</g>
</svg>
