<?xml version="1.0" standalone="no"?>
<!DOCTYPE svg PUBLIC "-//W3C//DTD SVG 20010904//EN"
 "http://www.w3.org/TR/2001/REC-SVG-20010904/DTD/svg10.dtd">
<svg version="1.0" xmlns="http://www.w3.org/2000/svg"
 width="300.000000pt" height="85.000000pt" viewBox="0 0 300.000000 85.000000"
 preserveAspectRatio="xMidYMid meet">
<metadata>
Created by potrace 1.10, written by Peter Selinger 2001-2011
</metadata>
<g transform="translate(0.000000,85.000000) scale(0.100000,-0.100000)"
fill="#ffffff" stroke="none">
<path d="M270 763 c0 -2 7 -17 15 -32 13 -26 20 -29 91 -35 42 -4 78 -6 79 -4
2 2 -39 19 -91 39 -52 20 -94 35 -94 32z"/>
<path d="M630 763 c1 -5 15 -24 33 -45 l32 -36 146 38 c81 21 153 40 160 43 8
3 -73 6 -178 6 -106 1 -193 -2 -193 -6z m100 -33 c0 -5 -9 -10 -20 -10 -11 0
-20 5 -20 10 0 6 9 10 20 10 11 0 20 -4 20 -10z"/>
<path d="M568 723 l-37 -38 69 -2 70 -2 -27 40 c-14 21 -29 39 -32 39 -4 0
-23 -17 -43 -37z"/>
<path d="M120 695 c0 -8 242 -265 249 -264 3 0 19 28 35 62 16 33 44 88 63
120 18 32 33 60 33 61 0 2 -75 6 -167 10 -92 4 -177 9 -190 12 -13 4 -23 3
-23 -1z m323 -40 c9 -4 17 -11 17 -17 0 -14 -83 -168 -91 -168 -8 0 -162 166
-167 180 -6 18 195 22 241 5z"/>
<path d="M449 542 l-65 -128 61 -68 62 -68 67 64 67 63 19 114 c28 161 34 147
-62 149 l-83 2 -66 -128z m194 109 c4 -1 7 -13 7 -28 0 -38 -28 -180 -39 -201
-14 -25 -97 -102 -111 -102 -15 0 -69 59 -81 88 -10 26 2 57 64 167 43 78 66
89 160 76z"/>
<path d="M845 601 c-38 -16 -46 -39 -71 -188 -13 -81 -24 -151 -24 -155 0 -4
19 -7 43 -5 l42 2 15 98 c13 89 16 97 36 97 17 0 23 7 26 30 4 26 1 30 -19 30
-38 0 -22 34 17 35 10 0 15 10 15 30 0 26 -4 30 -30 32 -16 1 -39 -2 -50 -6z
m5 -126 c-17 -21 -34 -4 -25 25 6 20 9 21 23 7 13 -13 13 -19 2 -32z"/>
<path d="M1605 588 c-4 -12 -43 -269 -48 -313 -2 -17 4 -20 38 -20 l40 0 27
160 c15 88 27 166 27 173 1 8 -13 12 -39 12 -24 0 -42 -5 -45 -12z"/>
<path d="M1042 511 c-7 -4 -34 -6 -60 -3 l-47 4 -18 -113 c-23 -154 -24 -149
19 -147 43 2 50 13 59 101 8 73 23 97 61 97 17 0 24 6 24 19 0 11 3 26 6 35 7
18 -21 22 -44 7z"/>
<path d="M1150 502 c-70 -34 -106 -170 -60 -220 28 -30 62 -36 129 -26 53 8
56 11 59 39 l3 30 -63 0 c-52 0 -63 3 -66 18 -3 15 5 17 72 17 l75 0 7 45 c13
93 -66 142 -156 97z m78 -73 c2 -12 -6 -18 -32 -21 -37 -4 -46 8 -24 30 17 17
52 11 56 -9z m-88 -38 c0 -20 -17 -37 -27 -28 -7 8 7 47 18 47 5 0 9 -9 9 -19z"/>
<path d="M1410 509 c-60 -25 -91 -82 -92 -171 -1 -63 26 -83 113 -83 58 0 73
4 85 19 29 40 19 51 -48 51 -52 0 -63 3 -66 18 -3 15 6 17 72 17 l76 0 0 54
c0 68 -20 96 -75 102 -22 2 -51 -1 -65 -7z m60 -63 c0 -2 3 -11 6 -19 4 -11
-4 -16 -30 -19 -37 -4 -40 -1 -30 26 5 14 54 24 54 12z m-84 -47 c7 -12 -22
-46 -32 -37 -8 9 5 48 16 48 5 0 12 -5 16 -11z"/>
<path d="M1747 513 c-18 -3 -31 -13 -38 -29 -14 -40 -12 -41 48 -40 45 1 58
-2 61 -15 2 -13 -9 -17 -49 -22 -67 -8 -99 -36 -99 -87 0 -59 49 -87 102 -59
12 6 23 7 27 2 3 -5 22 -9 41 -9 l35 1 14 108 c14 105 14 108 -6 129 -21 21
-82 30 -136 21z m109 -139 c-3 -8 -10 -14 -16 -14 -14 0 -13 28 3 44 10 12 13
12 15 -1 2 -8 1 -21 -2 -29z m-46 -23 c0 -25 -14 -41 -36 -41 -17 0 -24 6 -24
18 0 10 3 22 7 25 10 10 53 8 53 -2z"/>
<path d="M2066 513 c-4 -4 -33 -6 -66 -5 l-59 2 -5 -32 c-3 -18 -13 -73 -21
-122 -8 -49 -12 -92 -9 -97 2 -4 21 -7 42 -6 l37 2 14 90 c13 91 20 105 55
105 20 0 20 -6 0 -152 l-7 -47 36 2 c20 2 39 6 43 9 6 7 33 164 34 201 0 37
-69 75 -94 50z m52 -62 c3 -8 -1 -12 -9 -9 -7 2 -15 10 -17 17 -3 8 1 12 9 9
7 -2 15 -10 17 -17z"/>
<path d="M2244 505 c-42 -22 -64 -64 -71 -139 -5 -60 -4 -66 21 -91 24 -24 33
-27 77 -23 58 6 57 5 61 43 3 28 2 29 -33 27 -45 -4 -51 5 -43 58 9 55 28 73
69 66 31 -6 33 -5 38 26 2 18 3 35 1 37 -11 12 -93 10 -120 -4z"/>
<path d="M2441 503 c-53 -28 -72 -62 -78 -136 -5 -56 -3 -67 15 -85 29 -29 65
-36 131 -26 53 8 56 11 59 39 l3 30 -63 0 c-52 0 -63 3 -66 18 -3 15 5 17 71
17 l75 0 7 38 c7 42 -4 81 -29 101 -26 22 -87 24 -125 4z m77 -74 c2 -12 -6
-18 -32 -21 -37 -4 -46 8 -24 30 17 17 52 11 56 -9z m-88 -31 c0 -19 -18 -43
-25 -36 -9 9 4 48 16 48 5 0 9 -6 9 -12z"/>
<path d="M2794 513 c-49 -4 -52 -6 -58 -35 -3 -17 -4 -33 -2 -35 6 -6 135 60
135 70 1 4 -5 6 -11 5 -7 -1 -36 -3 -64 -5z"/>
<path d="M2668 467 c-44 -40 -47 -46 -60 -125 -8 -45 -12 -84 -10 -87 9 -9 71
-5 77 5 6 10 46 243 42 246 -1 2 -23 -16 -49 -39z"/>
<path d="M357 242 c-19 -75 -34 -138 -32 -140 4 -4 160 159 160 167 0 4 -21
31 -46 59 l-46 51 -36 -137z m84 62 c17 -15 17 -19 4 -45 -14 -26 -42 -49 -61
-49 -8 0 0 43 15 83 12 31 18 33 42 11z"/>
</g>
</svg>
