 <svg  version="1.0" xmlns="http://www.w3.org/2000/svg"  width="300.000000pt" height="80.000000pt" viewBox="0 0 300.000000 80.000000"  preserveAspectRatio="xMidYMid meet">  <g transform="translate(0.000000,80.000000) scale(0.050000,-0.050000)" fill="#ffffff" stroke="none"> <path d="M579 1573 c-284 -77 -542 -391 -570 -694 l-10 -109 48 134 c174 485 633 740 951 530 113 -75 143 -60 63 32 -104 118 -288 159 -482 107z"/> <path d="M2711 1316 c-23 -34 -31 -97 -31 -250 l0 -205 -85 59 c-367 257 -769 -133 -627 -608 90 -297 467 -407 661 -193 l40 44 22 -67 c29 -87 105 -116 177 -69 l52 34 0 616 c0 572 -3 619 -37 650 -52 47 -135 42 -172 -11z m-201 -525 c253 -105 187 -591 -80 -591 -309 0 -314 604 -4 619 8 1 46 -12 84 -28z"/> <path d="M5793 1323 c-27 -29 -33 -80 -33 -260 l0 -223 -42 42 c-342 342 -827 -77 -675 -584 85 -284 446 -383 662 -182 54 51 55 51 55 8 0 -102 152 -159 204 -77 27 41 19 1262 -8 1289 -36 36 -125 29 -163 -13z m-160 -557 c99 -64 140 -289 79 -434 -91 -217 -400 -158 -441 83 -48 286 157 484 362 351z"/> <path d="M547 1263 c-199 -125 -56 -435 166 -362 92 30 152 125 139 218 -22 145 -182 220 -305 144z"/> <path d="M1000 960 c-37 -37 -40 -67 -40 -459 l0 -418 54 -43 c55 -43 131 -42 176 2 11 11 25 160 30 331 l10 310 65 59 c74 65 189 79 256 30 35 -26 40 -62 49 -362 11 -359 28 -410 142 -410 115 0 181 590 91 807 -87 207 -377 254 -563 90 -65 -57 -70 -58 -70 -19 0 53 -68 122 -120 122 -22 0 -58 -18 -80 -40z"/> <path d="M3315 973 c-319 -119 -428 -539 -209 -804 193 -234 762 -192 825 60 31 122 -76 144 -197 41 -194 -167 -433 -117 -467 97 l-12 73 300 0 c363 0 397 15 392 169 -11 276 -347 470 -632 364z m294 -184 c42 -28 64 -66 98 -174 11 -32 -8 -35 -220 -35 l-232 0 12 65 c28 144 219 225 342 144z"/> <path d="M4315 973 c-302 -113 -413 -517 -216 -789 193 -266 841 -207 841 77 0 74 -77 101 -145 51 -25 -19 -75 -55 -112 -82 -173 -126 -375 -55 -415 145 l-12 62 323 7 c397 7 425 28 360 260 -61 221 -382 359 -624 269z m303 -186 c43 -30 102 -138 102 -186 0 -13 -85 -21 -230 -21 -247 0 -247 0 -202 108 37 89 103 132 202 132 45 0 102 -15 128 -33z"/> <path d="M690 766 c-44 -15 -100 -25 -125 -20 l-45 8 0 -328 c0 -408 76 -532 231 -377 49 49 81 756 34 749 -8 -2 -51 -16 -95 -32z"/> </g> </svg> 