<?xml version="1.0" standalone="no"?>
<!DOCTYPE svg PUBLIC "-//W3C//DTD SVG 20010904//EN"
 "http://www.w3.org/TR/2001/REC-SVG-20010904/DTD/svg10.dtd">
<svg version="1.0" xmlns="http://www.w3.org/2000/svg"
 width="300.000000pt" height="138.000000pt" viewBox="0 0 300.000000 138.000000"
 preserveAspectRatio="xMidYMid meet">
<metadata>
Created by potrace 1.10, written by Peter Selinger 2001-2011
</metadata>
<g transform="translate(0.000000,138.000000) scale(0.100000,-0.100000)"
fill="#ffffff" stroke="none">
<path d="M256 1326 c-22 -8 -44 -12 -50 -9 -6 3 -8 3 -4 -2 4 -4 -11 -21 -32
-36 -149 -108 -169 -330 -42 -462 57 -59 110 -86 191 -96 79 -10 98 -21 117
-66 10 -24 10 -35 -2 -58 -9 -16 -20 -25 -26 -21 -7 4 -8 3 -4 -4 10 -16 -40
-34 -68 -26 -49 15 -66 44 -66 111 l0 63 -116 0 -117 0 5 -85 c7 -107 38 -175
109 -239 65 -59 129 -80 223 -74 113 8 207 68 256 165 33 64 40 188 15 264
-33 99 -132 170 -262 189 -48 6 -73 15 -90 33 -52 52 -17 137 56 137 62 -1 91
-38 91 -119 l0 -51 111 0 111 0 -4 93 c-3 68 -10 103 -25 132 -30 57 -91 118
-148 145 -60 29 -172 37 -229 16z"/>
<path d="M1307 1214 c-4 -4 -7 -49 -7 -101 l0 -93 100 0 101 0 -3 98 -3 97
-90 3 c-50 1 -94 0 -98 -4z"/>
<path d="M1700 942 l0 -280 -25 -31 c-14 -16 -35 -33 -45 -36 -18 -6 -20 -16
-20 -116 l0 -109 28 0 c41 0 95 18 133 43 l34 23 65 -33 c138 -71 305 -35 396
84 16 21 37 60 46 88 l17 50 1 -127 0 -128 38 0 c21 0 55 9 75 19 37 19 38 19
87 0 66 -25 164 -25 230 0 49 19 50 19 87 0 20 -10 52 -19 70 -19 l33 0 0 310
0 310 -110 0 -110 0 0 -171 0 -171 -29 -29 c-38 -38 -74 -38 -112 0 l-29 29 0
172 0 171 -112 -3 -113 -3 -5 -130 c-3 -71 -7 -119 -8 -105 -3 37 -55 122 -98
160 -59 51 -118 73 -211 78 l-83 5 0 -117 0 -116 63 0 c77 0 107 -23 107 -84
0 -95 -129 -120 -165 -31 -11 26 -15 81 -15 224 0 104 -4 201 -10 215 -15 40
-78 104 -113 115 -18 5 -47 12 -64 16 l-33 7 0 -280z"/>
<path d="M937 979 c-96 -23 -171 -90 -207 -186 -17 -47 -20 -78 -20 -243 l0
-190 110 0 110 0 0 169 c0 168 0 170 26 200 14 17 34 31 45 31 18 0 19 8 19
115 0 129 4 124 -83 104z"/>
<path d="M1030 876 l0 -116 111 0 112 0 -7 41 c-16 102 -78 165 -179 184 l-37
7 0 -116z"/>
<path d="M1290 824 l0 -166 -34 -34 c-19 -19 -41 -34 -50 -34 -14 0 -16 -16
-16 -110 l0 -110 33 0 c47 0 100 17 141 45 20 13 36 20 36 15 0 -6 3 -9 8 -8
4 1 32 -11 62 -25 30 -15 72 -27 93 -27 l37 0 0 108 0 107 -33 15 c-51 24 -57
47 -57 228 l0 162 -110 0 -110 0 0 -166z"/>
<path d="M1582 144 l3 -98 47 -3 c41 -3 49 0 68 24 41 53 8 129 -52 120 -23
-3 -27 1 -30 22 -2 15 -10 27 -21 29 -16 3 -17 -5 -15 -94z m98 -4 c20 -37 -8
-78 -43 -64 -13 5 -22 58 -12 75 11 16 44 10 55 -11z"/>
<path d="M1490 215 c0 -8 9 -15 20 -15 11 0 20 7 20 15 0 8 -9 15 -20 15 -11
0 -20 -7 -20 -15z"/>
<path d="M446 163 c24 -98 62 -151 73 -98 2 11 8 31 13 45 10 24 10 24 26 -19
22 -58 38 -62 53 -11 7 22 15 36 19 30 4 -6 7 9 8 34 0 61 -20 60 -39 -1 l-15
-48 -13 48 c-17 58 -41 60 -55 4 -5 -20 -13 -37 -16 -37 -4 0 -12 18 -19 40
-14 47 -46 58 -35 13z"/>
<path d="M671 178 c1 -27 44 -132 56 -135 6 -2 17 13 23 34 19 58 22 59 39 13
9 -24 21 -45 27 -47 7 -2 21 23 33 58 25 74 26 89 7 89 -7 0 -19 -20 -26 -46
l-13 -46 -16 43 c-9 24 -23 44 -30 44 -8 0 -21 -20 -29 -45 l-15 -44 -14 47
c-8 28 -19 47 -28 47 -8 0 -15 -6 -14 -12z"/>
<path d="M900 177 c0 -30 43 -138 54 -134 6 2 18 23 27 47 17 46 20 45 39 -13
6 -21 17 -36 23 -34 12 4 38 65 51 120 11 45 -21 34 -35 -13 -7 -22 -15 -40
-19 -40 -3 0 -11 17 -16 37 -13 56 -37 54 -55 -4 l-15 -48 -13 48 c-8 27 -19
47 -27 47 -8 0 -14 -6 -14 -13z"/>
<path d="M1226 174 c-19 -18 -19 -17 -5 -48 7 -14 16 -23 20 -20 5 3 21 -2 36
-10 25 -13 26 -15 10 -22 -10 -3 -29 -2 -42 4 -31 14 -46 -5 -20 -25 26 -18
59 -16 85 5 28 23 20 59 -16 68 -13 3 -24 13 -24 21 0 11 7 13 25 9 18 -5 25
-2 25 8 0 28 -69 36 -94 10z m31 -31 c-4 -3 -7 0 -7 7 0 7 3 10 7 7 3 -4 3
-10 0 -14z"/>
<path d="M1380 113 c0 -55 3 -74 13 -71 7 3 13 26 15 56 2 40 7 52 23 57 33
11 22 33 -16 33 l-35 0 0 -75z"/>
<path d="M1500 114 c0 -56 3 -75 13 -72 8 3 13 30 15 76 2 60 0 72 -13 72 -12
0 -15 -14 -15 -76z"/>
<path d="M1770 127 c0 -36 5 -68 12 -75 15 -15 55 -16 64 -1 5 8 9 8 14 -1 17
-27 30 4 30 71 0 55 -3 69 -15 69 -11 0 -15 -12 -15 -49 0 -51 -18 -78 -45
-67 -11 4 -15 21 -15 61 0 42 -3 55 -15 55 -12 0 -15 -14 -15 -63z"/>
<path d="M2050 170 c-42 -42 -13 -130 43 -130 29 0 62 24 53 38 -5 8 -13 8
-31 0 -44 -20 -75 33 -40 68 10 11 25 13 45 9 31 -7 39 2 18 23 -19 19 -66 14
-88 -8z"/>
<path d="M2210 170 c-28 -28 -26 -75 5 -105 30 -30 54 -31 89 -4 52 41 23 129
-44 129 -17 0 -39 -9 -50 -20z m80 -25 c26 -31 -8 -83 -45 -69 -37 15 -25 84
15 84 10 0 23 -7 30 -15z"/>
<path d="M2382 116 c2 -55 6 -71 18 -71 11 0 16 15 20 55 4 41 9 56 22 58 14
3 17 -6 20 -54 4 -74 28 -88 28 -17 0 48 12 73 37 73 8 0 13 -20 15 -57 2 -35
8 -58 16 -61 10 -3 12 13 10 70 l-3 73 -93 1 -93 1 3 -71z"/>
<path d="M2433 143 c4 -3 10 -3 14 0 3 4 0 7 -7 7 -7 0 -10 -3 -7 -7z"/>
<path d="M2513 143 c4 -3 10 -3 14 0 3 4 0 7 -7 7 -7 0 -10 -3 -7 -7z"/>
<path d="M1090 110 c0 -7 3 -10 7 -7 3 4 3 10 0 14 -4 3 -7 0 -7 -7z"/>
<path d="M2510 100 c0 -7 3 -10 7 -7 3 4 3 10 0 14 -4 3 -7 0 -7 -7z"/>
<path d="M1132 63 c2 -10 10 -18 18 -18 22 0 18 29 -3 33 -14 3 -18 -1 -15
-15z"/>
<path d="M1946 72 c-8 -13 11 -35 23 -28 16 10 14 36 -3 36 -8 0 -17 -4 -20
-8z"/>
</g>
</svg>
