<?xml version="1.0" standalone="no"?>
<!DOCTYPE svg PUBLIC "-//W3C//DTD SVG 20010904//EN"
 "http://www.w3.org/TR/2001/REC-SVG-20010904/DTD/svg10.dtd">
<svg version="1.0" xmlns="http://www.w3.org/2000/svg"
 width="300.000000pt" height="57.000000pt" viewBox="0 0 300.000000 57.000000"
 preserveAspectRatio="xMidYMid meet">
<metadata>
Created by potrace 1.10, written by Peter Selinger 2001-2011
</metadata>
<g transform="translate(0.000000,57.000000) scale(0.100000,-0.100000)"
fill="#ffffff" stroke="none">
<path d="M307 560 c-58 -18 -97 -83 -97 -162 0 -52 -25 -103 -64 -130 -62 -45
-96 -82 -107 -119 -10 -32 -9 -42 7 -70 11 -18 36 -41 57 -52 l38 -19 95 36
95 36 75 -30 c98 -39 142 -39 183 -1 25 23 31 37 31 70 0 53 -16 77 -90 136
-67 54 -70 60 -84 155 -12 80 -29 115 -65 131 -17 8 -31 17 -31 21 0 9 -6 9
-43 -2z m72 -58 c24 -23 29 -39 35 -102 10 -106 12 -112 59 -145 88 -62 117
-95 117 -131 0 -43 -30 -74 -71 -74 -17 0 -67 15 -110 34 l-80 35 -80 -35
c-45 -19 -93 -34 -108 -34 -57 0 -94 56 -69 104 7 13 45 49 84 80 77 59 77 59
90 181 6 64 16 84 49 103 32 18 55 14 84 -16z"/>
<path d="M306 474 c-9 -8 -16 -23 -16 -33 0 -10 -3 -38 -6 -62 l-6 -44 51 0
51 0 -5 45 c-10 76 -15 89 -34 100 -15 7 -24 6 -35 -6z"/>
<path d="M297 289 c-60 -35 -25 -133 43 -120 50 10 69 87 28 115 -26 18 -46
20 -71 5z m51 -52 c2 -10 -4 -20 -13 -23 -21 -9 -28 0 -20 26 8 24 28 22 33
-3z"/>
<path d="M163 186 c-54 -42 -70 -80 -38 -92 12 -5 127 29 144 43 2 1 -4 12
-15 24 -10 11 -23 31 -29 43 -10 23 -10 23 -62 -18z"/>
<path d="M430 211 c0 -10 -10 -30 -21 -45 -12 -15 -20 -28 -18 -29 23 -15 122
-48 136 -45 38 7 26 44 -30 92 -60 51 -67 54 -67 27z"/>
<path d="M799 493 c-53 -32 -59 -57 -59 -230 0 -178 5 -193 67 -193 43 0 63
27 63 87 0 56 7 83 21 83 5 0 9 -11 9 -24 0 -34 24 -87 52 -113 37 -35 77 -45
138 -37 30 4 71 6 91 5 21 -1 40 4 48 12 10 13 19 13 69 -5 70 -24 120 -20
171 16 35 25 36 25 51 8 38 -46 113 -51 157 -10 l22 20 52 -26 c58 -29 92 -32
128 -12 19 11 30 11 60 0 20 -7 44 -13 54 -14 26 0 76 28 102 58 l23 27 29
-26 c43 -41 73 -52 133 -52 51 0 84 11 131 44 12 9 21 6 42 -15 61 -61 128
-15 123 83 -1 38 3 60 14 74 27 33 40 12 40 -62 0 -53 4 -74 20 -93 30 -38 64
-41 97 -7 34 34 40 35 61 9 10 -12 34 -25 56 -30 34 -7 41 -5 62 15 30 30 30
32 -5 87 -54 85 -53 81 -21 124 33 43 36 61 16 87 -18 23 -77 22 -108 -3 -31
-24 -38 -18 -38 35 0 120 -131 128 -139 8 -1 -17 -67 -36 -86 -25 -28 15 -75
1 -93 -27 -9 -14 -17 -28 -19 -30 -2 -3 -13 5 -26 17 -30 29 -89 52 -131 52
-32 0 -89 -25 -124 -53 -11 -8 -18 -6 -30 10 -25 31 -59 45 -80 34 -38 -20
-41 -33 -51 -174 -1 -5 -5 -6 -9 -3 -4 2 -7 32 -6 65 2 56 -1 64 -28 92 -33
32 -57 32 -92 -1 -15 -14 -19 -34 -20 -84 -1 -84 -20 -87 -24 -4 -5 96 -55
146 -102 103 -25 -23 -54 -12 -101 37 -30 32 -42 38 -61 33 -32 -10 -58 -35
-58 -56 0 -24 -15 -32 -32 -17 -7 8 -38 13 -73 13 -47 0 -67 -5 -92 -23 l-32
-23 -30 22 c-16 12 -41 21 -55 20 -33 -2 -40 -1 -102 5 -42 5 -58 1 -97 -20
-52 -29 -70 -20 -38 20 27 34 26 50 -4 79 -29 30 -95 34 -136 8z m128 -27 c4
-3 2 -16 -4 -28 -7 -16 -18 -22 -44 -22 -30 -1 -34 -5 -37 -28 -3 -26 -1 -28
32 -28 32 0 36 -3 36 -25 0 -22 -4 -25 -35 -25 l-35 0 0 -105 0 -105 -35 0
-35 0 0 158 c0 168 6 192 54 213 21 9 93 6 103 -5z m1805 -98 c-2 -60 -1 -108
1 -108 3 0 29 25 58 55 43 45 58 55 85 55 19 0 34 -3 34 -7 0 -4 -20 -28 -45
-53 l-45 -45 50 -75 c28 -41 50 -78 50 -82 0 -5 -17 -8 -37 -8 -36 0 -40 4
-73 61 l-35 60 -23 -27 c-19 -21 -22 -34 -17 -61 6 -32 5 -33 -30 -33 l-35 0
0 191 0 190 33 -3 32 -3 -3 -107z m-1144 30 c3 -37 4 -38 43 -38 35 0 39 -3
39 -25 0 -22 -4 -25 -40 -25 l-40 0 0 -74 c0 -77 10 -93 46 -79 16 6 34 -12
34 -34 0 -19 -63 -35 -93 -24 -50 19 -57 44 -57 192 0 74 3 139 7 143 4 4 19
6 33 4 21 -3 25 -9 28 -40z m-461 -50 l23 -21 0 21 c0 18 6 22 35 22 l35 0 0
-135 0 -135 -35 0 c-28 0 -35 4 -35 20 0 20 0 20 -19 1 -30 -30 -74 -35 -124
-13 -93 41 -105 175 -21 241 37 29 109 29 141 -1z m334 5 c6 -6 8 -21 4 -33
-5 -17 -12 -20 -28 -15 -43 14 -95 17 -102 6 -11 -19 12 -37 61 -51 79 -22
107 -87 59 -135 -33 -33 -112 -37 -167 -9 -31 16 -32 18 -18 45 10 18 13 18
40 4 16 -8 45 -15 65 -15 31 0 36 3 33 21 -2 15 -18 27 -53 40 -85 32 -109 86
-59 136 23 23 31 25 90 21 35 -2 69 -9 75 -15z m319 -76 c0 -95 8 -117 41
-117 38 0 49 27 49 121 l0 89 35 0 35 0 0 -93 c0 -95 8 -117 41 -117 38 0 49
27 49 121 l0 89 35 0 35 0 0 -85 c0 -97 -15 -145 -54 -170 -35 -23 -92 -22
-119 3 -22 20 -22 20 -46 1 -14 -12 -39 -19 -63 -19 -32 0 -47 7 -74 34 l-34
34 0 101 0 101 35 0 35 0 0 -93z m606 50 c29 -31 34 -44 34 -86 0 -105 -54
-149 -174 -143 -19 1 -42 16 -68 42 -40 39 -40 41 -36 100 3 46 10 66 29 86
34 37 56 44 123 41 53 -3 62 -7 92 -40z m154 18 l0 -24 25 24 c35 35 65 33 65
-4 0 -25 -5 -31 -30 -36 -47 -10 -60 -39 -60 -127 l0 -78 -35 0 -35 0 0 135 0
135 35 0 c30 0 35 -3 35 -25z m-864 -114 c-3 -20 -5 -37 -6 -38 -1 -11 -31 1
-39 15 -19 35 -1 73 30 65 17 -5 19 -11 15 -42z"/>
<path d="M1043 310 c-50 -20 -60 -105 -17 -139 35 -28 69 -26 99 4 41 40 33
105 -16 130 -32 17 -35 17 -66 5z m60 -78 c-2 -43 -7 -48 -38 -34 -16 8 -25
20 -25 35 0 31 9 39 40 35 21 -3 25 -8 23 -36z"/>
<path d="M2250 307 c-92 -46 -31 -188 65 -151 19 8 45 55 45 83 0 24 -37 67
-65 75 -11 3 -31 0 -45 -7z m60 -57 c8 -14 7 -25 -2 -40 -16 -25 -30 -25 -52
-1 -14 15 -15 24 -6 40 14 27 46 27 60 1z"/>
</g>
</svg>
